<?xml version="1.0" encoding="UTF-8"?><svg id="Layer_2" xmlns="http://www.w3.org/2000/svg" viewBox="0 0 2382.42 2524.44"><defs><style>.cls-1{fill:#4494f5;}.cls-2{fill:#212121;}.cls-3{fill:#bdd7fc;}.cls-4{fill:#143ba7;}.cls-5{fill:#00f7ff;stroke:#5266ff;stroke-miterlimit:10;stroke-width:15.41px;}</style></defs><g id="Layer_1-2"><path class="cls-5" d="M1432.72,1923.01c-.62,72.2-11.53,143.44-22.4,214.35-9.84,64.12-19.67,128.25-29.51,192.37-8.12,52.93-16.5,106.75-38.78,154.39,9.17-140.88,18.33-281.76,27.5-422.64,1.83-28.11,3.72-56.57,12.09-83.08,8.37-26.51,24.06-51.28,51.1-55.4Z"/><path class="cls-5" d="M1411.42,1889.33c1.52,75.1-23.4,146.68-47.96,216.18-18.59,52.61-37.19,105.22-55.78,157.83-12.03-44.79-2.97-91.84,6.14-136.67,6.34-31.22,12.69-62.45,19.03-93.67,5.47-26.94,11.06-54.22,22.71-78.64,11.65-24.42,30.22-46.09,55.87-65.04Z"/><path class="cls-5" d="M1386.83,1946.82c-21.09,77.04-71.46,143.57-137.45,181.54,20.69-83.04,70.19-153.13,118.66-221.01,9.22-12.92,23.92-27.27,37.84-19.53-.5,23.68-5.86,47.06-19.04,59Z"/><path class="cls-5" d="M1399.35,1873.1c2.52,30.32-13.06,59.72-35.91,77.08-22.85,17.36-51.98,23.83-80.51,23.39-4.91-.08-10.28-.54-13.97-4.12-4.93-4.79-4.62-13.47-1.12-19.26,3.51-5.78,9.36-9.36,15-12.74,20.99-12.55,41.98-25.1,62.97-37.65,16.61-9.93,33.86-20.08,53.52-26.71Z"/><path class="cls-5" d="M1363.11,1928.09c-18.86-10.48-41.49-12.56-61.22-5.62,1.5-4.04-2.97-8.13-7.07-8.87-4.1-.74-8.49.14-12.25-1.82-4.97-2.58-6.96-9.55-5.47-15.09,1.49-5.54,5.66-9.74,10.22-12.78,15.86-10.58,36.42-9.49,55.24-5.95,18.81,3.54,37.85,9.19,56.59,6.53,6.13-.87,13.38-2.23,17.79,2.59,4.53,4.96,2.48,13.67-2.45,17.81-4.93,4.14-11.63,4.96-51.36,23.19Z"/><path class="cls-5" d="M1388.89,1906.76c-24.84-15.04-49.69-30.09-74.53-45.13-7.08-4.29-15.04-9.98-15.66-18.52-.58-8.1,6.36-14.78,13.8-16.29,7.43-1.51,15.15.81,22.52,3.11,28,8.74,59.05,20.03,53.87,76.83Z"/><path class="cls-5" d="M1531.52,1851.45c48.09,52.68,103.11,97.51,157.89,142.11,49.54,40.33,99.08,80.66,148.61,120.99,40.89,33.29,82.56,67.05,130.38,86.61-99.68-97.26-199.36-194.53-299.05-291.79-19.89-19.41-40.06-39.03-63.7-52.71-23.64-13.68-51.53-20.99-74.14-5.21Z"/><path class="cls-5" d="M1524.97,1811.86c48.43,56.3,113.98,91.63,177.9,125.68,48.39,25.77,96.77,51.54,145.16,77.31-20.7-41.32-58.4-69.63-94.67-96.27-25.27-18.56-50.53-37.11-75.8-55.67-21.8-16.01-43.9-32.19-68.58-42.06-24.68-9.86-52.63-12.89-84.01-8.99Z"/><path class="cls-5" d="M1580.98,1837.05c66.34,42,147.29,55.91,220.88,37.95-70-46.7-152.66-63.83-233.09-80.06-15.31-3.09-35.59-3.42-40.72,11.95,15.99,17.07,35.36,30.54,52.93,30.16Z"/><path class="cls-5" d="M1523.14,1791.53c18.15,24.06,49.01,34.85,77.27,31.73,28.26-3.12,53.96-18.62,74.65-38.78,3.56-3.47,7.21-7.55,7.56-12.74.47-6.95-5.49-13.13-11.88-14.94-6.4-1.82-13.06-.38-19.44,1.06-23.72,5.37-47.44,10.73-71.16,16.1-18.77,4.25-38.16,8.78-57,17.58Z"/><path class="cls-5" d="M1586.08,1806.77c6.96-20.83,22.24-38.1,41.33-46.72-3.77-1.93-3.18-8.05-.65-11.44,2.53-3.39,6.34-5.8,7.82-9.86,1.95-5.36-1.18-11.87-5.93-14.91-4.75-3.04-10.59-3.23-15.95-2.3-18.65,3.24-33.05,18.35-44.56,34.04-11.51,15.69-21.78,33.08-37.32,44.17-5.08,3.62-11.32,7.66-11.38,14.27-.06,6.79,7.19,11.78,13.55,11.4,6.36-.38,11.83-4.43,53.09-18.66Z"/><path class="cls-5" d="M1553.05,1809.01c8.35-28.35,16.7-56.69,25.05-85.04,2.38-8.08,4.48-17.81-.7-24.52-4.92-6.37-14.43-6.45-20.9-2.39-6.47,4.06-10.61,11.13-14.51,17.95-14.83,25.9-30.22,55.8,11.06,93.99Z"/><path class="cls-5" d="M1502.67,2059.79c35.35,36.68,55.36,89.5,53.44,141.06-37.69-43.35-65.18-96.62-79.08-153.29,7.85-.48,15.97-.92,23.42,2.07,7.45,2.99,14.07,10.4,2.21,10.16Z"/><path class="cls-5" d="M1476.79,2017.94c11.4,33.53,15.24,69.71,11.1,104.56-18.88-9.28-29.69-31.92-31.59-53.75-1.89-21.83,3.55-43.28,8.95-64.18,2.79.54,5.58,1.07,8.37,1.61,1.01,4.83,2.4,9.49,3.17,11.76Z"/><path class="cls-5" d="M1469.52,1976.53c6.97,24.37-5.33,49.1-17.21,70.52-3.92,7.08-9.64,15.12-17.43,13.89-8.17-1.29-11.9-11.91-12.16-20.66-.84-28.86,19.2-56.14,46.79-63.75Z"/><path class="cls-5" d="M1594.85,2013.59c38.87,1.58,75.19,25.69,101.82,56.76,26.63,31.07,45.06,68.81,63.16,106.05-61.56-50.14-123.12-100.29-184.69-150.43,3.82-8.66,15.98-12.53,19.71-12.38Z"/><path class="cls-5" d="M1597.45,2021.61c24.15,10.78,48.66,20.58,73.47,29.36,7.39,2.62,16.23,4.92,22.16-.13,5.11-4.35,5.73-12.79,3.19-19.43-2.53-6.63-7.53-11.87-12.45-16.8-13.92-13.97-28.58-27.48-45.59-36.65-17.01-9.17-36.75-13.7-54.85-8.85-9.89,2.65-20.18,9.96-20.33,20.89-.15,11.14,10.13,19.42,19.83,23.96,9.71,4.54,20.77,8.09,14.57,7.66Z"/><path class="cls-5" d="M1539.3,1965.22c19.16,9.57,39.98,15.14,60.88,16.28,5.38.29,11.32.07,15.13-3.83,6.8-6.96,1.83-19.78-5.25-26.92-21.15-21.34-58.81-19.01-70.76,14.47Z"/><path class="cls-1" d="M1080.77,433.77c-4.51-8.78-11.84-15.52-18.92-22.14-7.08-6.62-14.27-13.6-18.35-22.61-4.07-9.01-4.28-20.63,1.94-27.73,6.22-7.1,19.51-6.29,23.48,2.77-8.43-1.17-11.92,13.26-5.45,19.3,6.47,6.04,16.72,4.09,23.38-1.25,6.66-5.34,10.98-13.25,16.48-19.92,19.04-23.09,53.97-29.19,80.08-13.98,13.56,7.9,25.38,20.98,40.57,22.85,16.22,1.99,30.46-9.46,42.82-20.28,8.96,4.98,10.27,19.01,5.17,27.95-5.09,8.94-14.4,13.95-23.32,18.37-8.92,4.42-18.33,9.04-23.96,17.6-6.56,9.98-6.67,23.19-9.56,35.06-7.29,29.96-35.29,52.01-64.61,50.88-29.32-1.13-57.2-25.33-64.33-55.84"/><path class="cls-2" d="M1139.78,445.74c-12.01-3.19-24.08-7.46-34.07-15.42-9.99-7.96-13.18-21.22-13.47-34.3-.36-16.1,10.69-30.24,24.29-36.8,18.36-8.85,54.35-11.22,75.04,7.38,24.66,22.16,10.31,30.38,10.66,46.58.24,10.95.37,22.39-4.23,32.02-5.34,11.17-17.13,18.32-29.06,17.62-11.93-.7-23.4-9.21-28.27-20.98"/><path class="cls-2" d="M1065.62,390.32c-4.77,5.93-14.37,5.93-20.12.67-5.75-5.26-7.44-14.56-4.8-21.89,2.64-7.33,9.05-12.6,16.2-14.64,4.18-1.19,9.57-.9,11.91,3.11,2.02,3.46.7,7.9-1.16,11.33-1.86,3.42-4.28,6.77-4.41,10.78-.13,4,3.66,8.47,7.07,6.88"/><path class="cls-2" d="M1224.54,375.51c13.84-2.35,26.85-9.12,36.95-19.22,2-2,4.45-4.29,7.16-3.51,2.61.75,3.85,3.96,4.3,6.79,1.93,12.2-4.37,25.07-14.76,30.12-10.38,5.05-23.97,1.85-31.8-7.48-1.03-1.23-2-2.63-2.23-4.24"/><path class="cls-5" d="M1194.16,1611.55c-105.99,254.51-295.83,454.79-481.66,649.02,15.21-74.15,75.01-125.07,121.06-182.09,96.76-119.8,140.48-282.32,243.31-396.2,32.73-36.25,70.96-66.83,117.28-70.73Z"/><path class="cls-5" d="M1173.76,1562.9c-30.92,95.44-98.38,170.52-164.02,242.52-79.58,87.29-159.16,174.58-238.74,261.88,85.32-200.82,222.53-374.89,402.75-504.4Z"/><path class="cls-5" d="M1153.82,1535.43c4.7,35.35-17.89,66.71-40.21,92.35-80.83,92.85-176.06,171.39-280.95,231.72,67.69-144.85,183.68-262.24,321.17-324.07Z"/><path class="cls-5" d="M1162.23,1537.97c-100.36,75.05-205.21,143.44-313.79,204.67-8.5-23.62,8.25-47.53,24.49-65.04,35.97-38.79,75.43-74.54,120.69-100.36,45.26-25.82,96.74-41.39,148.8-38.34-8.99,1.61-17.99,3.22,19.81-.93Z"/><path class="cls-5" d="M1156.39,1533.76c-76.14,36.76-159.04,58.45-243.38,63.68-5.35.33-12.27-.48-13.94-5.98-1.48-4.89,2.57-9.35,6.33-12.36,39.82-32,89.44-48.36,139.53-55.04,50.09-6.68,101.09-4.2,151.81-1.71-4.77,2.17-11.8-2.37-40.35,11.41Z"/><path class="cls-5" d="M1132.47,1546.21c2.28-8.27-5.25-16.92-13.29-18.81-8.04-1.89-16.16.81-24.04,2.88-32.57,8.56-67.91,6.24-99.92-6.56-13.47-5.39-28.44-16.11-27.73-31.21.63-13.28,13.4-21.67,25.46-24.77,29.13-7.5,59.97,2.66,88.97,12.7,26.29,9.11,52.58,18.22,78.88,27.33,5.32,1.84,11.17,4.14,13.82,9.41,3.84,7.62-1.8,17.18-9.28,19.95-7.48,2.77-15.84.78-32.88,9.09Z"/><path class="cls-5" d="M1198.66,1515.88c-21.81,5.71-45.54-.85-65.57-12.8-20.03-11.95-37.01-28.94-53.77-45.74-15.01-15.06-31.49-35.4-25.29-55.75,40.97,33.1,86.95,59.01,135.42,76.32,9.2,3.29,18.77,6.42,26.27,13.1,7.49,6.67,12.16,17.23-17.06,24.87Z"/><path class="cls-5" d="M1120.86,1725.04c-45.8,108.82-69.73,228.61-69.78,349.32,77.89-139.97,129.43-297.08,150.85-459.78,1.22-9.3.99-21.38-7.19-25.31-9.37-4.49-17.96,6.52-22.6,15.96-22.53,45.83-40.22,93.55-51.27,119.81Z"/><path class="cls-5" d="M1204.69,1586.3c-64.98,128.32-84.96,282.91-55.36,428.35,42.78-56.43,51.6-134.36,50.93-208.07-.66-73.7-9.08-148.7,4.43-220.28Z"/><path class="cls-5" d="M1183.8,1647.35c14.29,22.46,14.91,51.11,13.72,77.75-1.19,26.63-3.48,54.38,6.33,79.31,9.81,24.93,36.64,45.23,59.94,36.11-25.39-85.38-50.78-170.76-76.17-256.14-12.44,17.1-18.14,40.47-3.82,62.97Z"/><path class="cls-5" d="M1277.02,1769.26c-3.36-72.68-53.1-141.99-118.52-165.13,1.02,34.2,16.76,66.94,37.84,93.48,21.08,26.54,47.35,47.77,80.68,71.65Z"/><path class="cls-5" d="M1219.11,1593.32c-4.48,28.61,4.74,59.74,24.03,81.13,19.29,21.4,48.16,32.51,75.23,28.97-3.94-20.22-19.4-36.1-35.97-47.18-16.57-11.08-34.98-18.8-50.93-30.88-15.95-12.08-29.8-30.22-12.36-32.04Z"/><path class="cls-5" d="M1527.79,1516.33c263.5,37.99,526.23-26.93,781.92-91.42-68.62-25.03-141.41,1.75-212.05,13.11-148.42,23.88-304.21-21.74-450.94,10.63-46.7,10.3-91.63,28.45-118.92,67.69Z"/><path class="cls-5" d="M1498.57,1472.85c94.22,22.11,190.78,1.08,283.88-19.94,112.86-25.48,225.73-50.96,338.59-76.43-208.79-28.47-422.68,3.2-622.47,96.37Z"/><path class="cls-5" d="M1486.45,1440.79c26.49,22.58,63.92,18.77,96.53,12.22,118.07-23.7,231.91-67.67,335.87-129.74-153.81-15.06-310.25,27.2-432.4,117.51Z"/><path class="cls-5" d="M1484.16,1449.6c113.65-50.36,224.19-108.19,330.81-173.06-14.91-19.86-43.2-17.38-65.98-12.02-50.47,11.86-100.27,28.42-144.95,55.3-44.68,26.89-84.21,64.64-108.81,112.62,6-7.17,11.99-14.35-11.07,17.16Z"/><path class="cls-5" d="M1483.74,1442.22c69.71-48.7,130.6-111.27,178.75-183.69,3.05-4.59,5.99-11.18,2.36-15.53-3.23-3.86-8.99-2.57-13.41-.8-46.92,18.83-86.13,54.52-117.65,95.67-31.53,41.15-56.03,87.88-80.38,134.35,4.26-3.12,4.2-11.75,30.33-30.01Z"/><path class="cls-5" d="M1506.39,1427.39c-7.96-2.27-11.12-13.48-8.48-21.63,2.63-8.14,9.08-13.98,14.87-19.92,23.95-24.57,40.44-57.26,46.61-92.43,2.6-14.8,1.61-33.72-11.13-40.94-11.2-6.35-24.71.66-33.53,9.79-21.29,22.05-29.03,54.81-35.89,85.87-6.22,28.16-12.44,56.32-18.67,84.49-1.26,5.7-2.42,12.11.51,17.21,4.24,7.38,15,7.33,21.16,2.11,6.16-5.23,8.88-13.7,24.55-24.56Z"/><path class="cls-5" d="M1447.12,1470.58c16.02-16.46,23-41.02,23.63-65.07.64-24.06-4.43-48.03-9.47-71.7-4.52-21.21-12.6-46.47-32.48-51.54,5.78,53.72,3.07,108.17-7.98,160.35-2.1,9.91-4.51,20.07-2.94,30.22,1.57,10.15,7.78,19.8,29.24-2.25Z"/><path class="cls-5" d="M1658.83,1510.09c112.91,15.82,223.43,56.82,322.28,119.58-155.11-3.44-310.55-39.26-454.89-104.83-8.25-3.75-18.02-10.24-16.97-19.57,1.2-10.68,14.68-12.61,24.83-11.83,49.24,3.77,97.51,12.84,124.75,16.66Z"/><path class="cls-5" d="M1501.63,1512.58c138.85,8.87,275.81,71.5,379.47,173.53-68.45,8.75-136.84-23.94-196.83-62.88-59.99-38.94-117.01-85.46-182.64-110.66Z"/><path class="cls-5" d="M1562.48,1525.74c10.95,24.42,34.09,39.88,56.51,52.68,22.42,12.8,46.33,25.2,61.63,46.9,15.3,21.71,17.96,56.18-1.62,72.19-56.69-67.04-113.37-134.08-170.06-201.12,20.47-2.18,42.57,4.89,53.54,29.35Z"/><path class="cls-5" d="M1613.78,1672.21c-57.76-40.8-88.61-121.18-73.52-191.5,27.47,18.7,46.08,49.76,56.84,82.35,10.76,32.59,14.47,67.03,16.68,109.15Z"/><path class="cls-5" d="M1499.88,1529.08c25.75,10.89,46.44,35.3,53.92,63.62,7.48,28.32,1.56,59.82-15.43,82.09-14.5-14.03-19.47-36.07-19.91-56.59-.45-20.52,2.81-40.94,1.21-61.44-1.59-20.5-9.24-42.27-19.79-27.68Z"/><path class="cls-5" d="M702.48,1069.02c-57.67,28.99-125.18,26.9-187.76,41.85-124.29,29.69-222.44,124.12-320.71,208.48-5.53,4.75-11.45,9.65-18.58,10.64-7.13.99-15.65-3.61-16.66-11.25-.76-5.77,2.76-10.93,6.15-15.35,78.95-103.12,183.43-181.32,295.02-242.02,111.59-60.7,230.75-104.81,349.6-148.42-10.7,30.92-21.56,62.16-38.74,89.4-17.18,27.24-40.45,52.65-68.32,66.67Z"/><path class="cls-5" d="M791.99,899.63c-20.45,46.23-64.41,76.44-111.06,89.45-46.65,13.01-96.22,10.88-144.8,6.57-81.96-7.28-164.12-20.65-242.61-48.89-78.49-28.24-153.47-71.93-212.98-134.15-38.3-40.05-74.63-126.17-72.76-147.45,1.79-20.33,127.45,121.26,202.74,157.16,75.29,35.9,164.64,52.59,245.8,63.47,101.37,13.58,184.61,27.09,277.2-14.67,9.96-4.49,20.46-9.6,31.32-7.71,10.86,1.9,21.03,14.53,27.16,36.23Z"/><path class="cls-5" d="M764.57,841.73c-136.94-14.43-276.46-29.54-404.13-87.62-56.22-25.58-112.72-59.99-172.97-57.11,115.86,89.67,246.87,156.56,384.08,196.11,35.65,10.28,72.3,18.78,108.78,16.44,36.48-2.34,73.18-16.69,84.24-67.82Z"/><path class="cls-5" d="M799.73,826.65c-159-66.79-327.36-106.25-496.38-116.35,76.47,32.41,152.93,64.81,229.4,97.22,55.17,23.38,110.63,46.85,168.31,60.63,17.85,4.26,36.23,7.59,54.13,4.93,17.9-2.66,35.47-12.14,44.55-46.42Z"/><path class="cls-5" d="M754.47,816.79c-102.03-60.76-214.14-101.44-328.72-119.26,33.65-31.7,85.41-28.59,130.3-17.93,71.21,16.91,139.77,48.44,200.73,92.32,9.55,6.87,19.73,15.4,21.51,27.39,1.78,11.99-11.84,24.63-23.82,17.49Z"/><path class="cls-5" d="M656.25,732.53c-16.46-32.18-43.74-58.19-75.53-72.01-7.01-3.05-14.28-5.56-20.79-9.74-6.51-4.18-12.33-10.39-14.29-18.15,18.73-10.17,41.83-5.02,62.24,2.26,72.11,25.73,136.92,76.17,182.22,141.8,4.87,7.06,9.76,15.34,8.32,23.77-1.88,10.96-13.59,16.46-24.1,16.95-24.04,1.14-46.51-14.39-64.67-31.91-18.16-17.52-42.11-30.89-53.41-52.98Z"/><path class="cls-5" d="M724.41,733.39c-7.32-47.36-35.46-91.3-74.46-116.27,1.98-6.24,8.38-9.83,14.61-10.04,6.23-.22,12.34,2.31,18.07,5.15,30.09,14.91,55.55,39.48,75.93,67.52,20.38,28.04,35.99,59.57,50.11,91.55,2.9,6.57,5.82,13.76,4.42,20.72-2.01,10.04-12.83,15.67-22.5,14.34-9.67-1.34-18.13-7.96-25.22-15.28-7.08-7.33-13.36-15.63-21.26-20.74-7.99-12.08-17.73-24.16-19.7-36.93Z"/><path class="cls-5" d="M761.74,714.89c7.28-31.63,6.35-65.63-2.66-97.34-1.26-4.45-2.7-9.01-2.34-13.59.36-4.58,3.07-9.24,7.32-10,5.34-.96,9.94,4.24,13.14,9.03,34.42,51.39,44.61,115.64,53.82,177.3,1.79,12.01,2.39,26.96-7.3,32.93-8.93,5.51-20.53-.76-28.64-8.09-22.64-20.45-42.15-51.94-33.34-90.26Z"/><path class="cls-5" d="M794.4,712.94c5.67-23.3,15.72-45.24,29.39-64.18,3.19-4.41,8.94-8.97,13.14-5.36,1.91,1.65,2.54,4.41,3.01,6.95,7.41,40.17,6.76,81.72-1.92,121.03-2.02,9.13-5.46,19.34-13.77,22.4-9.6,3.53-19.89-4.7-25.99-13.7-10.55-15.56-11.91-34.03-3.86-67.13Z"/><path class="cls-5" d="M825.63,788.03c20.35-7.42,36.94-24.99,44.01-46.61,7.07-21.62,4.5-46.88-6.83-67.03-14.41,17.11-28.97,34.43-39.01,54.84-6.95,14.12-11.62,29.56,1.83,58.8Z"/><path class="cls-5" d="M825.39,801.98c3.24-.81,5-4.64,5.14-8.2.14-3.56-.88-7.1-1.15-10.67-.96-12.59,7.3-23.38,15.59-32.08,7.78-8.16,17.88-16.34,28.78-13.67,10.81,2.65,17.34,15.22,18.49,26.92,1.81,18.39-6.75,37.14-21.3,46.62-14.55,9.48-34.39,9.25-45.56-8.92Z"/><path class="cls-5" d="M685.8,1057.23c-18.19,71.41-77.69,121.82-102.43,190.76-1.6,4.47-2.58,10.61,1.28,13.3,3.74,2.61,8.4-.57,11.59-3.69,24.12-23.55,44.49-51.06,64.75-78.45,44.87-60.64,89.74-121.29,134.61-181.93,4.4-5.95,8.89-12.07,10.95-19.37,2.06-7.3,1.21-16.14-4-21.66-6.53-6.91-17.05-6.31-25.74-3.89-20.92,5.82-39.37,19.14-53.96,35.86-14.59,16.72-28.53,35.64-37.04,69.06Z"/><path class="cls-5" d="M718.69,1076.35c-21.6,84.4-65.26,161.57-124.89,220.75-46.62,46.26-103.42,82.6-138.36,139.45,3.4,6.19,11.19,8.34,17.63,6.85,6.44-1.49,11.84-5.82,17.04-10.04,42.7-34.69,85.41-69.38,128.11-104.06,38.06-30.92,76.49-62.21,106.67-101.75,47.47-62.19,71.67-140.82,93.75-218,4.17-14.56,8.34-29.56,7.14-44.92-1.19-15.35-8.97-31.36-22.41-37.45-12.44-5.64-27.08-1.53-37.37,7.18-10.29,8.71-16.95,21.33-22.45,34.1-14.25,33.06-15.36,70.77-24.86,107.9Z"/><path class="cls-5" d="M742.8,1163.99c-8.29,88.28-42.4,172.72-96.44,238.76-5.07,6.2-10.51,12.63-12.05,20.77-1.54,8.14,2.64,18.35,10.42,19.79,7.52,1.4,13.64-5.51,18.25-11.77,30.26-41.06,60.51-82.12,90.77-123.18,32.89-44.63,66.19-90.02,86.02-142.96,19.83-52.93,24.76-115.35.79-167.88-5.75-12.6-15.93-26.07-28.82-24.75-11.62,1.19-18.48,13.71-23.14,24.99-23.75,57.52-41.32,118.63-45.79,166.24Z"/><path class="cls-5" d="M825.8,1086.07c-6.18,81.45,10.86,165.54,48.33,238.45,9.41,18.3,21.5,37.17,39.92,44.05,4.61-54.26-20.79-106.69-33.1-160.18-13.84-60.15-11.1-122.48-17.02-183.83-1.43-14.8-5.78-32.73-19.26-36.95-7.59-2.37-15.86.93-21.3,6.73-5.45,5.81-8.45,13.76-10.33,21.79-5.13,21.93-2.55,46.06,12.75,69.93Z"/><path class="cls-5" d="M862.85,981.26c-7.58,79.3,41.83,155.39,43.86,235.41-38.23-20.31-67.05-60.46-75.2-104.78-8.15-44.32,4.56-91.7,31.34-130.63Z"/><path class="cls-5" d="M891.09,986.08c31.57,82.73,49.86,170.77,53.83,259.06.25,5.49-.68,12.59-5.72,13.58-3.52.69-6.78-2.28-9.31-5.09-43.04-47.79-59.55-115.01-71.21-179.32-3.27-18.05-6.29-36.73-2.57-54.43,3.72-17.7,15.86-34.36,34.97-33.8Z"/><path class="cls-5" d="M877.44,968.93c14.34,72.89,55.46,140.33,112.55,184.58,7.19-2.13,10.58-11.39,9.29-19.33-1.28-7.94-5.99-14.82-10.55-21.36-34.09-48.82-68.42-97.93-111.29-143.89Z"/><path class="cls-5" d="M890.11,970.79c18.31,45.34,52.85,83.46,94.77,104.62,1.79.91,3.68,1.8,5.64,1.75,5.06-.13,7.94-6.74,6.65-12-1.29-5.26-5.28-9.29-9.07-12.99-24.8-24.18-49.6-48.37-74.4-72.55-4.43-4.32-9.12-8.8-14.89-10.38-5.77-1.58-12.86.89-8.69,1.55Z"/><path class="cls-5" d="M893.69,955.8c26.01,21.32,50.76,44.4,74.06,69.05,4.56,4.82,9.25,9.84,15.19,12.36,5.94,2.51,13.53,1.77,17.21-3.57,3.69-5.36,2.21-13.15-.73-19.25-7.61-15.77-23.03-25.67-38.5-32.12-15.47-6.45-31.86-10.41-67.23-26.46Z"/><path class="cls-5" d="M869.98,943.2c24.21,13.24,49.22,24.71,74.81,34.31,10.76,4.04,21.94,7.79,33.2,7.11,11.25-.68,22.72-6.7,27.13-17.61-36.68-16.22-77.96-19.47-135.14-23.81Z"/><path class="cls-5" d="M961.86,931.52c-2.27,7.65-10.79,10.52-18.26,11.8-14.71,2.52-29.79,2.95-44.73,1.29-8.94-.99-19.61-4.33-22.16-13.56-1.4-5.08.36-10.65,3.71-14.37,3.36-3.72,8.1-5.75,12.93-6.62,13.06-2.33,26.31,3.24,39.03,7.9,12.72,4.66,26.94,8.46,29.48,13.55Z"/><path class="cls-5" d="M1794.65,764.44c62.88-13.63,114.65-57.9,172.88-85.67,115.64-55.15,250-42.94,378.35-38.71,7.23.24,14.84.35,21.05-3.37,6.2-3.72,10.11-12.71,6.27-19.36-2.9-5.01-8.8-6.84-14.14-8.18-124.55-31.17-254.04-26.63-378.51-3.87-124.47,22.77-244.83,63.35-364.63,104.14,27.16,17.54,54.62,35.23,84.64,45.78,30.01,10.55,63.7,15.83,94.1,9.24Z"/><path class="cls-5" d="M1621.63,687.88c44.1,23.41,96.95,19.39,141.48.15,44.54-19.24,82.18-52.2,117.74-86.27,59.97-57.46,116.42-119.84,160.96-191.59,44.54-71.75,76.97-153.41,85.99-239.87,5.81-55.64-17.86-146.24-32.23-161.78-13.73-14.84-26.61,175.73-63.99,251.47-37.39,75.74-97.46,145.27-154.63,205.06-71.41,74.68-128.61,137.85-226.67,163.49-10.55,2.76-21.89,5.37-29.28,13.72-7.38,8.35-7.71,24.69.63,45.61Z"/><path class="cls-5" d="M1608.07,625.08c98.84-97.8,199.28-197.76,264.37-324.01,28.66-55.59,52.18-118.31,101.27-154.08-36.66,143.6-99.03,278.87-182.85,396.58-21.78,30.58-45.41,60.4-75.49,81.6-30.08,21.2-67.62,33.09-107.3-.09Z"/><path class="cls-5" d="M1571.3,635.43c84.42-152.86,192.76-290.17,319.43-404.82-40.43,73.74-80.85,147.48-121.28,221.22-29.17,53.2-58.5,106.66-95.47,153.9-11.44,14.62-23.86,28.84-39.54,38.05-15.68,9.21-35.23,12.86-63.14-8.34Z"/><path class="cls-5" d="M1600.88,599.12c43.32-112.16,106.73-214.9,185.94-301.25-45.65-3.66-84.43,31.46-113.24,68.18-45.7,58.25-80.44,126.3-101.73,199.27-3.33,11.43-6.17,24.56-.3,35.1,5.87,10.54,24.24,11.87,29.32-1.3Z"/><path class="cls-5" d="M1626.96,470.9c-6.57-35.67-.91-73.33,15.67-104.26,3.66-6.83,7.85-13.38,10.43-20.78,2.58-7.39,3.39-15.95.22-23.28-20.88,3.84-35.91,22.47-47.52,41.08-41.05,65.74-61.39,146.29-57.18,226.46.45,8.62,1.63,18.22,7.87,23.93,8.12,7.43,20.66,4.35,29.21-1.89,19.58-14.29,27.81-40.67,31.46-65.9,3.65-25.24,14.35-50.86,9.84-75.34Z"/><path class="cls-5" d="M1573.94,514.61c-22.96-41.82-27.5-94.11-11.99-138.36-5.33-3.65-12.54-2.43-17.57,1.34-5.03,3.77-8.29,9.6-11.07,15.46-14.6,30.71-19.71,66.09-18.72,100.99.99,34.9,7.85,69.52,16.14,103.56,1.7,6.99,3.77,14.48,9.09,19.07,7.67,6.62,19.58,4.21,26.37-2.94,6.79-7.16,9.42-17.7,10.54-27.93,1.12-10.23,1.02-20.72,4.12-29.72-1.04-14.54-.72-30.18-6.91-41.46Z"/><path class="cls-5" d="M1533.39,523.65c-24.9-20.26-44.78-47.55-56.92-78.15-1.71-4.3-3.34-8.78-6.4-12.15-3.06-3.37-8.02-5.31-11.81-3.23-4.77,2.62-5.23,9.61-4.85,15.4,4.11,62.11,35.07,119.01,65.21,173.27,5.87,10.56,14.46,22.69,25.7,21.26,10.36-1.31,15.67-13.55,17.6-24.44,5.39-30.36,1.62-67.42-28.53-91.96Z"/><path class="cls-5" d="M1506.55,542.74c-18.58-14.73-39.78-25.62-62-31.86-5.18-1.45-12.46-1.4-13.57,4.09-.5,2.5.68,5.06,1.85,7.36,18.53,36.24,44.24,68.47,74.88,93.87,7.12,5.9,16.02,11.75,24.4,8.9,9.68-3.29,12.78-16.25,12.11-27.18-1.15-18.89-11.27-34.25-37.67-55.18Z"/><path class="cls-5" d="M1527.54,621.44c-20.49,7.02-44.17,3.69-62.84-8.83-18.67-12.52-31.96-33.99-35.27-56.97,21.69,4.34,43.63,8.76,63.9,18.45,14.02,6.71,27.06,15.89,34.21,47.35Z"/><path class="cls-5" d="M1536.19,632.25c-3.04,1.41-6.74-.49-9.01-3.2-2.27-2.71-3.61-6.14-5.57-9.11-6.88-10.5-19.91-13.76-31.7-15.36-11.06-1.5-23.95-1.54-30.9,7.44-6.89,8.91-4.39,22.91,1.79,32.83,9.72,15.59,27.82,24.91,45,23.17,17.18-1.74,32.63-14.45,30.38-35.77Z"/><path class="cls-5" d="M1800.61,744.64c57.58,44.62,134.89,46.65,196.13,85.19,3.97,2.5,8.46,6.71,7.06,11.26-1.35,4.41-6.95,4.86-11.34,4.42-33.23-3.27-65.91-12.02-98.43-20.75-72.02-19.31-144.03-38.63-216.05-57.94-7.06-1.89-14.3-3.87-20.35-8.3-6.05-4.43-10.73-11.92-9.99-19.54.93-9.55,9.58-15.72,17.87-19.31,19.96-8.64,42.53-9.82,64.14-5.9,21.6,3.92,44.02,9.99,70.97,30.87Z"/><path class="cls-5" d="M1786.36,780.44c68.14,52.67,149.23,85.73,231.95,94.57,64.67,6.91,131.33-.41,193.24,22.19,1.08,7.01-3.74,13.62-9.7,16.51-5.96,2.89-12.83,2.91-19.47,2.87-54.58-.29-109.16-.58-163.74-.86-48.65-.26-97.8-.58-145.5-12.59-75-18.89-141.68-65.38-205.82-112.07-12.1-8.81-24.47-17.96-32.84-30.78-8.37-12.82-11.96-30.3-5.1-43.57,6.35-12.29,20.35-18.3,33.71-17.95,13.37.35,26.25,6.06,38.31,12.61,31.24,16.98,54.97,45.9,84.95,69.07Z"/><path class="cls-5" d="M1820.54,864.51c60.04,64.12,138.03,108.92,220.52,126.68,7.74,1.67,15.91,3.29,22.06,8.71,6.14,5.42,9.05,16.08,3.81,22.13-5.06,5.84-14.06,4.28-21.47,2.28-48.66-13.15-97.33-26.31-145.99-39.46-52.9-14.3-106.58-28.93-154.25-58-47.67-29.07-89.38-74.99-102.4-131.4-3.12-13.53-3.29-30.54,7.63-37.65,9.85-6.4,22.83-.9,33.32,5.02,53.53,30.2,104.39,67.11,136.76,101.69Z"/><path class="cls-5" d="M1708.1,855.7c54.24,60.08,91.83,136.91,106.59,217.85,3.71,20.32,5.65,42.78-4.66,59.82-36.52-39.72-48.35-96.94-71.11-146.73-25.59-56-65.54-103.23-98.08-155.16-7.85-12.53-15.31-29.36-7.27-41.19,4.52-6.65,13.02-9.28,20.82-8.16,7.8,1.12,14.98,5.47,21.33,10.6,17.32,14,29.93,34.58,32.38,62.99Z"/><path class="cls-5" d="M1615.45,796.76c54.04,57.51,61.35,148.49,108.27,212.63,17.72-40.1,16.02-89.83-4.45-129.8-20.47-39.97-59.18-69.16-103.82-82.84Z"/><path class="cls-5" d="M1596.19,818.36c25.36,84.92,64.36,165.65,114.77,237.51,3.13,4.47,8.17,9.46,12.72,7.06,3.18-1.68,3.94-6.07,4.23-9.87,4.84-64.72-22.94-127.95-52.77-185.84-8.37-16.25-17.32-32.83-30.98-44.38-13.66-11.56-33.3-16.98-47.97-4.47Z"/><path class="cls-5" d="M1596.51,796.28c32.93,66.32,41.51,145.26,23.49,216.07-6.94,2.87-15.21-2.27-19.02-9.32-3.81-7.05-4.28-15.43-4.66-23.44-2.82-59.88-5.63-120.13.2-183.31Z"/><path class="cls-5" d="M1587.68,805.74c13.1,47.18,9.08,98.93-11.02,142.03-.86,1.84-1.8,3.74-3.37,4.93-4.05,3.09-10.32-.28-12.5-5.23-2.18-4.95-1.49-10.63-.75-15.94,4.82-34.66,9.64-69.32,14.47-103.97.86-6.19,1.83-12.67,5.41-17.55,3.57-4.88,10.64-7.42,7.77-4.27Z"/><path class="cls-5" d="M1575.79,796.23c-7.51,33.17-12.96,66.93-16.32,101.01-.66,6.67-1.3,13.57-4.44,19.3-3.14,5.73-9.56,9.93-15.68,8.06-6.15-1.88-9.71-8.94-11.1-15.58-3.58-17.19,2.53-34.71,10.77-49.55,8.24-14.84,18.72-28.29,36.77-63.24Z"/><path class="cls-5" d="M1586.77,771.35c-10.99,25.68-23.69,50.49-37.97,74.19-6.01,9.97-12.52,19.98-21.77,26.55-9.25,6.57-21.91,9.08-31.99,3.29,18.99-35.9,49.44-64.52,91.74-104.03Z"/><path class="cls-5" d="M1507.51,820.19c6.42,4.58,14.86,1.45,21.5-2.26,13.08-7.31,25.19-16.49,35.93-27.23,6.42-6.43,12.79-15.78,9.19-24.65-1.98-4.87-6.74-8.14-11.63-8.94-4.89-.8-9.85.6-14.17,2.97-11.67,6.41-18.71,19.16-25.87,30.85-7.16,11.7-16.04,23.65-14.94,29.26Z"/><path class="cls-1" d="M1015.15,520.34c19.71,47.54,15.91,104.62-9.81,147.12-25.72,42.51-72.59,69.18-120.81,68.76,9.44,29.27-4.91,64.13-31.17,75.75-17.58-25.94-54.53-31.29-80.01-16.19-25.48,15.1-39.79,46.15-42.48,77.4-4.15,48.24,19.11,100.3,59.83,123.74,40.71,23.44,96.58,12.83,121.69-26.86l-27.68-36.52c44.98-12.35,93.76,17.44,122,58.21,28.24,40.77,40.78,90.71,54.55,138.84,35.68,124.67,75.67,246.38,134.68,361.29-22.43,6.05-41.8,14.32-50.45,36.82-9.71,25.24,7.4,86.55,36.33,84.6,10.9-.74,25.78-7.42,32.38-16.49,12.65-17.38,26.58-18.11,27.59-39.6l131.89,241.22c4.1,14.64,8.21,29.28,13.63,44.44-17.68,20.71-11.37,59.18,12.08,73.65,6.46,3.99,13.76,6.29,19.98,10.7,12.1,8.58,18.36,23.65,24.45,37.66,31.37,72.1,75.72,138.13,127.47,195.91,3.8,6.47,7.59,12.94,14.87,19.74-1.65,12.64,13.37,22.37,25.04,19.62,11.67-2.75,19.98-13.12,27.45-22.92,8.57-11.25,17.6-23.93,16.8-38.65-.68-12.53-8.37-23.44-15.55-33.63-50.68-71.89-91.87-151.19-121.91-234.72,12.28-2.11,29.42-8.09,33.96-20.32,14.78-39.77-17.92-63.64-33.41-63.33,0,0-9.85-64.67-21.29-102.88-10.5-35.08-59.38-141.87-59.38-141.87-2.43-8.13-.29-27.01,5.46-32.63,9.82-9.61,23.18,3.66,34.51,7.14,20.94,6.43,48.77-1.09,54.95-22.9,6.18-21.81-13.13-69.68-33.57-77.85-20.44-8.17-40.54-1.32-48.36,19.84-32.42-126.71-58.37-244.6-51.15-375.7,2.21-40.15,6.91-81.16,24.53-116.21,15.82-31.47,44.07-57.48,77.07-62.71,5.37-.85,8.89-6.43,7.32-12.05-7.6-27.3.62-58.74,20.33-76.94,3.31-3.06,8.48-2.48,11.16,1.4,21.22,30.76,68.54,38.21,94.49,12.82,27.51-26.9,25.84-74.39,14.58-113.38-7.55-26.14-19.07-52.13-38.63-70.17-19.56-18.04-48.55-26.35-71.16-14.7-21.32,10.99-31.92,42.48-23.47,66.65,1.37,3.91.6,8.38-2.14,11.19-13.81,14.18-40.29-44.17-86.96-30.85-43.08,12.29-109.18,4.02-127.39-40.41-9.6-23.42-5.78-49.76-5.65-74.99.13-25.23-5.91-54.28-26.76-67.05-13.92-8.52-30.81-7.42-46.54-6.06-42.88,3.71-85.77,7.42-128.65,11.13-31.74,2.75-69.77,10.39-79.96,42.25"/><path class="cls-4" d="M1089.34,608.1c-16.62,93.85-60.72,143.32-33.87,239.08,144.73,516.13,207.5,742.82,369.56,1058.97,64.35,125.54,140.96,260.61,240.66,357.03,99.7,96.42,225.58,152.64,358.06,153.83,37.93.34,79.18-13.58,115.09-23.1,90.86-24.09,26.37-56.41-21.39-43.75-108.67,28.81-213.01-11.65-310.01-71.44-93.54-57.65-165.36-145.73-213.81-248.43-153.39-325.16-246.28-680.87-271.51-1039.73-6.45-91.74,11.89-155.45-19.74-241.95-20.17-55.15-72.44-148.91-43.6-197.72,9.05-15.32,23.72-38.53,28.78-55.91,9.13-31.36-16.53-58.24-47.05-65.97-30.51-7.73-64.12,4.42-91.27,6.77-27.15,2.34-44.45-2.38-64.08-2.54-19.63-.15-37.82,1.59-52.57,14.87-14.75,13.28-25.48,44.95-13.32,61.78,11.5,15.91,40.15,26.08,51.35,34.59,15.47,11.75,23.24,38.04,18.71,63.62Z"/><path class="cls-3" d="M1141.78,521.33c-15.92,39.64-26.36,81.77-29.98,125.1-10.06,120.18,26.52,230.01,56.32,362.15,67.72,300.31,151.1,599.32,283.04,876.45,56.43,118.52,122.55,233.94,211.71,327.57,89.15,93.62,203.59,164.49,326.41,179.15-128.06-30.69-240.87-118.75-327.08-225.9-86.21-107.15-148.54-233.07-205.91-359.69-51.23-113.06-99.35-228.28-130.59-348.72-30.13-116.16-44.18-235.71-58.14-354.75-20.43-174.16-40.85-348.32-61.28-522.49-2.7-23.03-13.19-48.98-27.05-65.05-11.25-13.05-31.09-9.64-37.45,6.18h0Z"/></g></svg>