<?xml version="1.0" encoding="UTF-8"?>
<svg xmlns="http://www.w3.org/2000/svg" xmlns:xlink="http://www.w3.org/1999/xlink" width="360pt" height="360pt" viewBox="0 0 360 360" version="1.1">
<g id="surface1">
<path style=" stroke:none;fill-rule:nonzero;fill:rgb(13.699341%,12.199402%,12.5%);fill-opacity:1;" d="M 99.769531 161.738281 C 99.859375 161.339844 99.960938 160.949219 100.050781 160.558594 L 50.949219 147.441406 C 28.832031 141.578125 20.570313 147.871094 12.070313 156.710938 C 6.460938 162.53125 3.5 170.589844 3.5 180 C 3.5 189.410156 6.460938 197.46875 12.070313 203.289063 C 20.570313 212.128906 28.832031 218.429688 50.949219 212.570313 L 100.050781 199.449219 C 99.960938 199.050781 99.859375 198.660156 99.769531 198.261719 C 99.730469 198.058594 99.679688 197.859375 99.640625 197.660156 C 99.539063 197.179688 99.429688 196.710938 99.339844 196.230469 C 99.308594 196.101563 99.289063 195.980469 99.261719 195.851563 C 99.160156 195.300781 99.050781 194.738281 98.949219 194.179688 C 98.949219 194.148438 98.941406 194.121094 98.941406 194.089844 C 98.140625 189.511719 97.730469 184.808594 97.730469 180 C 97.730469 175.199219 98.140625 170.488281 98.941406 165.921875 C 98.941406 165.878906 98.949219 165.851563 98.949219 165.820313 C 99.050781 165.261719 99.148438 164.710938 99.261719 164.160156 C 99.289063 164.03125 99.308594 163.898438 99.339844 163.769531 C 99.429688 163.300781 99.53125 162.820313 99.640625 162.351563 C 99.679688 162.148438 99.730469 161.941406 99.769531 161.738281 Z M 84.519531 272.730469 L 120.46875 236.828125 C 116.011719 232.140625 112.070313 226.890625 108.75 221.140625 C 106.359375 216.988281 104.371094 212.71875 102.769531 208.371094 C 102.75 208.328125 102.730469 208.28125 102.71875 208.230469 C 102.53125 207.71875 102.351563 207.199219 102.171875 206.679688 C 102.121094 206.539063 102.070313 206.410156 102.03125 206.269531 C 101.878906 205.820313 101.730469 205.378906 101.589844 204.929688 C 101.519531 204.71875 101.449219 204.5 101.390625 204.289063 C 101.269531 203.898438 101.148438 203.519531 101.039063 203.140625 C 101.039063 203.128906 101.039063 203.128906 101.039063 203.128906 L 51.960938 216.320313 C 29.871094 222.308594 25.871094 231.890625 22.917969 243.789063 C 20.980469 251.640625 22.441406 260.101563 27.148438 268.25 C 31.851563 276.398438 38.449219 281.898438 46.210938 284.140625 C 57.988281 287.539063 68.300781 288.859375 84.519531 272.730469 Z M 120.46875 123.171875 L 84.519531 87.28125 C 68.300781 71.140625 58 72.460938 46.210938 75.871094 C 38.449219 78.109375 31.851563 83.601563 27.148438 91.75 C 22.441406 99.898438 20.980469 108.359375 22.917969 116.210938 C 25.871094 128.109375 29.871094 137.699219 51.960938 143.679688 L 101.039063 156.871094 C 101.148438 156.480469 101.269531 156.101563 101.390625 155.710938 C 101.449219 155.5 101.519531 155.289063 101.589844 155.089844 C 101.730469 154.628906 101.878906 154.179688 102.03125 153.730469 C 102.070313 153.601563 102.121094 153.46875 102.160156 153.328125 C 102.339844 152.808594 102.53125 152.289063 102.71875 151.769531 C 102.730469 151.730469 102.75 151.691406 102.761719 151.648438 C 104.359375 147.289063 106.351563 143.019531 108.75 138.871094 C 108.800781 138.78125 108.859375 138.691406 108.910156 138.601563 C 109.210938 138.078125 109.511719 137.570313 109.820313 137.070313 C 109.890625 136.949219 109.96875 136.828125 110.039063 136.710938 C 110.339844 136.230469 110.640625 135.75 110.949219 135.269531 C 110.96875 135.230469 111 135.191406 111.03125 135.148438 C 113.828125 130.839844 116.988281 126.828125 120.46875 123.171875 Z M 143.679688 308.039063 L 156.859375 258.980469 C 154.429688 258.261719 152.039063 257.429688 149.671875 256.480469 C 149.390625 256.378906 149.121094 256.269531 148.839844 256.160156 C 148.660156 256.078125 148.46875 256 148.289063 255.929688 C 138.910156 252.03125 130.421875 246.480469 123.160156 239.53125 L 87.269531 275.480469 C 71.140625 291.699219 72.460938 302 75.859375 313.789063 C 78.101563 321.550781 83.601563 328.148438 91.75 332.851563 C 99.898438 337.558594 108.359375 339.019531 116.199219 337.082031 C 128.109375 334.128906 137.691406 330.121094 143.679688 308.039063 Z M 156.859375 101.019531 L 143.671875 51.960938 C 137.691406 29.878906 128.109375 25.871094 116.199219 22.921875 C 108.359375 20.980469 99.898438 22.441406 91.75 27.148438 C 83.601563 31.859375 78.101563 38.449219 75.859375 46.21875 C 72.460938 58 71.140625 68.300781 87.269531 84.53125 L 123.160156 120.46875 C 130.289063 113.648438 138.609375 108.171875 147.789063 104.28125 C 148.03125 104.179688 148.269531 104.089844 148.511719 103.988281 C 148.75 103.890625 148.988281 103.789063 149.230469 103.691406 C 151.738281 102.671875 154.28125 101.78125 156.859375 101.019531 Z M 203.289063 347.929688 C 212.128906 339.429688 218.421875 331.167969 212.558594 309.050781 L 199.449219 259.96875 C 193.730469 261.371094 187.890625 262.140625 182 262.28125 C 181.46875 262.289063 180.929688 262.300781 180.398438 262.300781 C 180.308594 262.300781 180.21875 262.308594 180.128906 262.308594 C 180.089844 262.308594 180.039063 262.308594 180 262.308594 C 179.949219 262.308594 179.910156 262.308594 179.859375 262.308594 C 179.820313 262.308594 179.789063 262.308594 179.75 262.308594 C 179.699219 262.308594 179.640625 262.300781 179.589844 262.300781 C 179.058594 262.300781 178.53125 262.289063 178 262.28125 C 172.109375 262.140625 166.269531 261.371094 160.539063 259.96875 L 147.429688 309.050781 C 141.570313 331.167969 147.871094 339.429688 156.699219 347.929688 C 162.53125 353.539063 170.578125 356.5 180 356.5 C 189.410156 356.5 197.460938 353.539063 203.289063 347.929688 Z M 212.558594 50.949219 C 218.421875 28.839844 212.128906 20.578125 203.289063 12.070313 C 197.460938 6.46875 189.410156 3.5 180 3.5 C 170.578125 3.5 162.53125 6.46875 156.699219 12.070313 C 147.871094 20.578125 141.570313 28.839844 147.429688 50.960938 L 160.539063 100.03125 C 166.488281 98.570313 172.578125 97.800781 178.699219 97.710938 C 178.730469 97.710938 178.761719 97.710938 178.789063 97.710938 C 179.191406 97.699219 179.589844 97.699219 179.988281 97.699219 C 180.398438 97.699219 180.808594 97.699219 181.21875 97.710938 C 181.238281 97.710938 181.25 97.710938 181.269531 97.710938 C 187.398438 97.789063 193.488281 98.570313 199.449219 100.03125 Z M 258.769531 180 C 258.769531 176.011719 258.460938 172.078125 257.890625 168.25 C 257.859375 168.101563 257.839844 167.949219 257.820313 167.800781 C 257.761719 167.429688 257.699219 167.058594 257.640625 166.699219 C 257.570313 166.308594 257.5 165.921875 257.429688 165.539063 C 257.398438 165.398438 257.378906 165.261719 257.351563 165.128906 C 256.988281 163.289063 256.570313 161.449219 256.078125 159.621094 C 255.75 158.371094 255.378906 157.128906 254.988281 155.910156 C 254.96875 155.851563 254.949219 155.78125 254.929688 155.71875 C 254.78125 155.238281 254.621094 154.769531 254.449219 154.289063 C 254.351563 153.980469 254.238281 153.671875 254.128906 153.371094 C 254.050781 153.160156 253.980469 152.949219 253.898438 152.75 C 247.648438 135.859375 235.769531 121.679688 220.550781 112.5 C 220.050781 112.199219 219.539063 111.898438 219.03125 111.609375 C 218.859375 111.511719 218.691406 111.421875 218.53125 111.328125 C 217.949219 111 217.371094 110.691406 216.789063 110.378906 C 216.679688 110.328125 216.570313 110.269531 216.460938 110.210938 C 215.761719 109.839844 215.050781 109.488281 214.339844 109.148438 C 214.238281 109.101563 214.140625 109.050781 214.039063 109 C 213.441406 108.71875 212.828125 108.441406 212.21875 108.160156 C 212.050781 108.089844 211.871094 108.011719 211.691406 107.929688 C 211.078125 107.660156 210.46875 107.398438 209.859375 107.148438 C 209.75 107.109375 209.648438 107.058594 209.539063 107.019531 C 208.808594 106.730469 208.078125 106.441406 207.351563 106.171875 C 207.21875 106.128906 207.101563 106.078125 206.96875 106.039063 C 206.359375 105.820313 205.761719 105.601563 205.148438 105.398438 C 204.960938 105.339844 204.769531 105.269531 204.578125 105.210938 C 203.941406 105 203.308594 104.800781 202.671875 104.609375 C 202.558594 104.578125 202.460938 104.550781 202.359375 104.519531 C 201.621094 104.300781 200.871094 104.089844 200.121094 103.890625 C 199.960938 103.851563 199.808594 103.808594 199.660156 103.769531 C 199.058594 103.621094 198.449219 103.46875 197.851563 103.328125 C 197.648438 103.28125 197.441406 103.230469 197.238281 103.191406 C 196.589844 103.039063 195.929688 102.898438 195.269531 102.769531 C 195.171875 102.75 195.078125 102.730469 194.980469 102.710938 C 194.21875 102.558594 193.460938 102.429688 192.699219 102.300781 C 192.519531 102.269531 192.351563 102.25 192.171875 102.21875 C 191.570313 102.121094 190.980469 102.039063 190.378906 101.960938 C 190.171875 101.929688 189.960938 101.898438 189.738281 101.871094 C 189.070313 101.789063 188.390625 101.710938 187.71875 101.640625 C 187.628906 101.640625 187.539063 101.621094 187.449219 101.621094 C 186.679688 101.539063 185.921875 101.480469 185.148438 101.429688 C 184.960938 101.421875 184.761719 101.410156 184.558594 101.390625 C 183.980469 101.359375 183.390625 101.328125 182.800781 101.308594 C 182.578125 101.300781 182.359375 101.289063 182.140625 101.289063 C 181.441406 101.269531 180.738281 101.25 180.039063 101.25 C 180.03125 101.25 180.011719 101.25 180 101.25 C 179.96875 101.25 179.929688 101.25 179.890625 101.25 C 179.21875 101.25 178.550781 101.269531 177.878906 101.289063 C 177.640625 101.289063 177.398438 101.300781 177.160156 101.308594 C 176.601563 101.328125 176.03125 101.359375 175.46875 101.390625 C 175.25 101.410156 175.039063 101.421875 174.820313 101.429688 C 174.070313 101.480469 173.320313 101.539063 172.558594 101.609375 C 172.441406 101.628906 172.320313 101.640625 172.191406 101.648438 C 171.558594 101.71875 170.921875 101.789063 170.28125 101.871094 C 170.039063 101.898438 169.808594 101.929688 169.570313 101.960938 C 169.011719 102.039063 168.449219 102.121094 167.890625 102.210938 C 167.679688 102.238281 167.46875 102.269531 167.261719 102.308594 C 166.519531 102.429688 165.78125 102.558594 165.039063 102.699219 C 164.898438 102.730469 164.75 102.761719 164.609375 102.789063 C 164 102.910156 163.398438 103.039063 162.800781 103.179688 C 162.558594 103.230469 162.320313 103.28125 162.089844 103.339844 C 161.53125 103.46875 160.980469 103.601563 160.429688 103.75 C 160.230469 103.800781 160.03125 103.851563 159.839844 103.898438 C 159.109375 104.089844 158.390625 104.289063 157.671875 104.5 C 157.511719 104.550781 157.351563 104.601563 157.179688 104.648438 C 156.609375 104.828125 156.050781 105 155.480469 105.191406 C 155.238281 105.269531 155.011719 105.339844 154.78125 105.421875 C 154.230469 105.609375 153.691406 105.800781 153.148438 105.988281 C 152.96875 106.058594 152.78125 106.121094 152.601563 106.191406 C 151.890625 106.449219 151.199219 106.71875 150.5 107 C 150.328125 107.070313 150.160156 107.140625 149.988281 107.210938 C 149.449219 107.441406 148.910156 107.660156 148.378906 107.898438 C 148.148438 108 147.921875 108.101563 147.691406 108.199219 C 147.160156 108.441406 146.628906 108.679688 146.109375 108.929688 C 145.941406 109.011719 145.769531 109.089844 145.601563 109.171875 C 144.921875 109.5 144.25 109.828125 143.589844 110.179688 C 143.410156 110.269531 143.238281 110.371094 143.058594 110.460938 C 142.550781 110.730469 142.050781 111 141.539063 111.28125 C 141.328125 111.398438 141.109375 111.53125 140.890625 111.648438 C 140.480469 111.878906 140.070313 112.128906 139.671875 112.371094 C 128.148438 119.261719 118.53125 129.011719 111.800781 140.628906 C 105.878906 150.910156 102.359375 162.410156 101.46875 174.191406 C 101.328125 176.121094 101.25 178.058594 101.25 180 C 101.269531 193.800781 104.921875 207.421875 111.800781 219.378906 C 120.949219 235.171875 135.421875 247.5 152.75 253.910156 C 152.949219 253.980469 153.148438 254.058594 153.359375 254.128906 C 153.671875 254.238281 153.980469 254.351563 154.289063 254.460938 C 154.761719 254.621094 155.238281 254.78125 155.710938 254.929688 C 155.78125 254.960938 155.839844 254.980469 155.898438 255 C 157.128906 255.390625 158.359375 255.75 159.609375 256.089844 C 161.449219 256.578125 163.300781 257 165.148438 257.359375 C 165.269531 257.378906 165.390625 257.410156 165.511719 257.429688 C 165.910156 257.511719 166.320313 257.578125 166.71875 257.648438 C 167.070313 257.699219 167.421875 257.761719 167.769531 257.820313 C 167.941406 257.851563 168.109375 257.871094 168.269531 257.898438 C 170.800781 258.269531 173.359375 258.539063 175.949219 258.671875 C 177.289063 258.738281 178.640625 258.769531 180 258.769531 C 183.980469 258.769531 187.898438 258.46875 191.730469 257.898438 C 191.890625 257.871094 192.050781 257.851563 192.21875 257.820313 C 192.570313 257.761719 192.929688 257.699219 193.28125 257.640625 C 193.679688 257.578125 194.078125 257.511719 194.480469 257.429688 C 194.601563 257.410156 194.730469 257.378906 194.851563 257.359375 C 196.699219 257 198.550781 256.578125 200.378906 256.089844 C 201.019531 255.921875 201.648438 255.738281 202.28125 255.550781 C 202.890625 255.371094 203.488281 255.191406 204.089844 255 C 204.148438 254.980469 204.210938 254.960938 204.28125 254.941406 C 204.761719 254.78125 205.230469 254.621094 205.710938 254.460938 C 206.019531 254.351563 206.320313 254.238281 206.628906 254.128906 C 206.839844 254.058594 207.039063 253.980469 207.25 253.910156 C 228.800781 245.941406 245.929688 228.800781 253.898438 207.261719 C 253.980469 207.050781 254.050781 206.839844 254.128906 206.640625 C 254.238281 206.328125 254.351563 206.019531 254.449219 205.710938 C 254.621094 205.238281 254.78125 204.761719 254.929688 204.28125 C 254.949219 204.21875 254.96875 204.160156 254.988281 204.101563 C 255.378906 202.871094 255.75 201.640625 256.078125 200.390625 C 256.570313 198.558594 256.988281 196.71875 257.351563 194.871094 C 257.378906 194.738281 257.398438 194.601563 257.429688 194.46875 C 257.5 194.078125 257.570313 193.691406 257.640625 193.308594 C 257.699219 192.941406 257.761719 192.570313 257.820313 192.199219 C 257.839844 192.050781 257.859375 191.898438 257.890625 191.761719 C 258.460938 187.921875 258.769531 184 258.769531 180 Z M 284.128906 313.789063 C 287.53125 302 288.851563 291.699219 272.71875 275.480469 L 236.828125 239.53125 C 230.839844 245.269531 224.019531 250.050781 216.539063 253.738281 C 216.53125 253.738281 216.519531 253.75 216.511719 253.761719 C 215.78125 254.121094 215.039063 254.460938 214.300781 254.800781 C 213.441406 255.191406 212.570313 255.570313 211.691406 255.929688 C 211.519531 256.011719 211.339844 256.078125 211.160156 256.148438 C 210.871094 256.269531 210.589844 256.378906 210.300781 256.488281 C 207.941406 257.429688 205.550781 258.261719 203.128906 258.980469 L 216.320313 308.039063 C 222.300781 330.121094 231.878906 334.128906 243.789063 337.082031 C 251.640625 339.019531 260.089844 337.558594 268.25 332.851563 C 276.398438 328.148438 281.890625 321.550781 284.128906 313.789063 Z M 272.71875 84.519531 C 288.851563 68.300781 287.53125 58 284.128906 46.21875 C 281.890625 38.449219 276.398438 31.859375 268.25 27.148438 C 260.089844 22.441406 251.640625 20.980469 243.789063 22.921875 C 231.878906 25.871094 222.300781 29.878906 216.320313 51.960938 L 203.128906 101.019531 C 205.710938 101.78125 208.261719 102.671875 210.769531 103.691406 C 211.011719 103.789063 211.238281 103.890625 211.480469 103.980469 C 211.71875 104.078125 211.960938 104.179688 212.199219 104.289063 C 221.378906 108.171875 229.699219 113.648438 236.828125 120.46875 Z M 332.851563 268.25 C 337.550781 260.101563 339.019531 251.640625 337.070313 243.789063 C 334.128906 231.890625 330.121094 222.308594 308.039063 216.320313 L 258.96875 203.140625 C 258.210938 205.71875 257.328125 208.261719 256.308594 210.769531 C 256.210938 211.011719 256.109375 211.25 256.011719 211.488281 C 255.910156 211.730469 255.820313 211.96875 255.710938 212.199219 C 251.828125 221.390625 246.351563 229.699219 239.53125 236.828125 L 275.46875 272.730469 C 291.699219 288.859375 302 287.539063 313.78125 284.140625 C 321.550781 281.898438 328.140625 276.398438 332.851563 268.25 Z M 337.070313 116.210938 C 339.019531 108.359375 337.550781 99.898438 332.851563 91.75 C 328.140625 83.601563 321.550781 78.109375 313.78125 75.871094 C 302 72.460938 291.699219 71.140625 275.46875 87.28125 L 239.53125 123.171875 C 246.351563 130.300781 251.828125 138.621094 255.710938 147.800781 C 255.820313 148.039063 255.910156 148.269531 256.011719 148.511719 C 256.109375 148.75 256.210938 148.988281 256.308594 149.230469 C 257.328125 151.738281 258.210938 154.289063 258.96875 156.859375 L 308.039063 143.679688 C 330.121094 137.699219 334.128906 128.109375 337.070313 116.210938 Z M 356.488281 180 C 356.488281 170.589844 353.53125 162.53125 347.929688 156.710938 C 339.421875 147.871094 331.160156 141.578125 309.039063 147.441406 L 259.96875 160.550781 C 261.421875 166.5 262.199219 172.589844 262.289063 178.71875 C 262.289063 178.738281 262.289063 178.761719 262.289063 178.789063 C 262.300781 179.191406 262.300781 179.601563 262.300781 180 C 262.300781 180.410156 262.300781 180.808594 262.289063 181.21875 C 262.289063 181.238281 262.289063 181.261719 262.289063 181.289063 C 262.199219 187.421875 261.421875 193.5 259.96875 199.449219 L 309.050781 212.570313 C 331.160156 218.429688 339.421875 212.128906 347.929688 203.289063 C 353.53125 197.46875 356.488281 189.410156 356.488281 180 Z M 350.449219 154.28125 C 356.699219 160.769531 360 169.671875 360 180 C 360 190.339844 356.699219 199.230469 350.449219 205.71875 C 343.820313 212.609375 336.980469 218.351563 324.25 218.351563 C 323.851563 218.351563 323.441406 218.339844 323.03125 218.328125 C 334.921875 224.761719 338.109375 233.378906 340.46875 242.949219 C 342.640625 251.699219 341.050781 261.050781 335.878906 270 C 330.710938 278.949219 323.410156 285 314.75 287.5 C 310.320313 288.78125 305.980469 289.800781 301.441406 289.800781 C 296.269531 289.800781 290.828125 288.480469 284.699219 284.710938 C 291.789063 296.21875 290.230469 305.28125 287.5 314.761719 C 285 323.410156 278.949219 330.71875 270 335.890625 C 263.640625 339.550781 257.089844 341.417969 250.691406 341.417969 C 248.078125 341.417969 245.488281 341.109375 242.949219 340.480469 C 233.371094 338.109375 224.75 334.917969 218.320313 323.019531 C 218.699219 336.539063 212.828125 343.621094 205.71875 350.449219 C 199.230469 356.699219 190.328125 360 180 360 C 169.660156 360 160.769531 356.699219 154.28125 350.449219 C 147.171875 343.621094 141.300781 336.539063 141.679688 323.019531 C 135.25 334.917969 126.621094 338.109375 117.050781 340.480469 C 114.511719 341.109375 111.921875 341.417969 109.300781 341.417969 C 102.910156 341.417969 96.351563 339.550781 90 335.890625 C 81.050781 330.71875 74.988281 323.410156 72.5 314.761719 C 69.761719 305.28125 68.210938 296.21875 75.289063 284.710938 C 69.160156 288.480469 63.730469 289.800781 58.558594 289.800781 C 54.011719 289.800781 49.667969 288.78125 45.238281 287.5 C 36.589844 285 29.28125 278.949219 24.109375 270 C 18.941406 261.050781 17.359375 251.699219 19.519531 242.949219 C 21.890625 233.378906 25.070313 224.761719 36.960938 218.328125 C 36.550781 218.339844 36.140625 218.351563 35.738281 218.351563 C 23.019531 218.351563 16.167969 212.609375 9.539063 205.71875 C 3.300781 199.230469 0 190.339844 0 180 C 0 169.671875 3.300781 160.769531 9.539063 154.28125 C 16.378906 147.171875 23.460938 141.300781 36.96875 141.679688 C 25.070313 135.25 21.890625 126.628906 19.519531 117.050781 C 17.359375 108.308594 18.941406 98.949219 24.109375 90 C 29.28125 81.050781 36.589844 75 45.238281 72.5 C 54.71875 69.761719 63.78125 68.210938 75.289063 75.289063 C 68.210938 63.78125 69.761719 54.71875 72.5 45.25 C 74.988281 36.589844 81.050781 29.289063 90 24.121094 C 98.949219 18.949219 108.300781 17.359375 117.050781 19.519531 C 126.621094 21.890625 135.25 25.078125 141.679688 36.980469 C 141.300781 23.460938 147.171875 16.390625 154.28125 9.550781 C 160.769531 3.300781 169.660156 0 180 0 C 190.328125 0 199.230469 3.300781 205.71875 9.550781 C 212.828125 16.390625 218.699219 23.460938 218.320313 36.980469 C 224.75 25.078125 233.371094 21.890625 242.949219 19.519531 C 251.691406 17.359375 261.050781 18.949219 270 24.121094 C 278.949219 29.289063 285 36.589844 287.5 45.25 C 290.230469 54.71875 291.789063 63.78125 284.699219 75.289063 C 296.21875 68.210938 305.28125 69.761719 314.75 72.5 C 323.410156 75 330.710938 81.050781 335.878906 90 C 341.050781 98.949219 342.640625 108.308594 340.46875 117.050781 C 338.101563 126.628906 334.921875 135.25 323.019531 141.679688 C 336.539063 141.300781 343.609375 147.171875 350.449219 154.28125 "/>
<path style=" stroke:none;fill-rule:nonzero;fill:rgb(99.598694%,74.899292%,30.599976%);fill-opacity:1;" d="M 347.929688 156.710938 C 353.53125 162.53125 356.488281 170.589844 356.488281 180 C 356.488281 189.410156 353.53125 197.46875 347.929688 203.289063 C 339.421875 212.128906 331.160156 218.429688 309.050781 212.570313 L 259.96875 199.449219 C 261.421875 193.5 262.199219 187.421875 262.289063 181.289063 C 262.289063 181.261719 262.289063 181.238281 262.289063 181.21875 C 262.300781 180.808594 262.300781 180.410156 262.300781 180 C 262.300781 179.601563 262.300781 179.191406 262.289063 178.789063 C 262.289063 178.761719 262.289063 178.738281 262.289063 178.71875 C 262.199219 172.589844 261.421875 166.5 259.96875 160.550781 L 309.039063 147.441406 C 331.160156 141.578125 339.421875 147.871094 347.929688 156.710938 "/>
<path style=" stroke:none;fill-rule:nonzero;fill:rgb(96.899414%,56.098938%,25.898743%);fill-opacity:1;" d="M 332.851563 91.75 C 337.550781 99.898438 339.019531 108.359375 337.070313 116.210938 C 334.128906 128.109375 330.121094 137.699219 308.039063 143.679688 L 258.96875 156.859375 C 258.210938 154.289063 257.328125 151.738281 256.308594 149.230469 C 256.210938 148.988281 256.109375 148.75 256.011719 148.511719 C 255.910156 148.269531 255.820313 148.039063 255.710938 147.800781 C 251.828125 138.621094 246.351563 130.300781 239.53125 123.171875 L 275.46875 87.28125 C 291.699219 71.140625 302 72.460938 313.78125 75.871094 C 321.550781 78.109375 328.140625 83.601563 332.851563 91.75 "/>
<path style=" stroke:none;fill-rule:nonzero;fill:rgb(97.999573%,94.099426%,33.699036%);fill-opacity:1;" d="M 337.070313 243.789063 C 339.019531 251.640625 337.550781 260.101563 332.851563 268.25 C 328.140625 276.398438 321.550781 281.898438 313.78125 284.140625 C 302 287.539063 291.699219 288.859375 275.46875 272.730469 L 239.53125 236.828125 C 246.351563 229.699219 251.828125 221.390625 255.710938 212.199219 C 255.820313 211.96875 255.910156 211.730469 256.011719 211.488281 C 256.109375 211.25 256.210938 211.011719 256.308594 210.769531 C 257.328125 208.261719 258.210938 205.71875 258.96875 203.140625 L 308.039063 216.320313 C 330.121094 222.308594 334.128906 231.890625 337.070313 243.789063 "/>
<path style=" stroke:none;fill-rule:nonzero;fill:rgb(94.499207%,35.299683%,25.898743%);fill-opacity:1;" d="M 284.128906 46.21875 C 287.53125 58 288.851563 68.300781 272.71875 84.519531 L 236.828125 120.46875 C 229.699219 113.648438 221.378906 108.171875 212.199219 104.289063 C 211.960938 104.179688 211.71875 104.078125 211.480469 103.980469 C 211.238281 103.890625 211.011719 103.789063 210.769531 103.691406 C 208.261719 102.671875 205.710938 101.78125 203.128906 101.019531 L 216.320313 51.960938 C 222.300781 29.878906 231.878906 25.871094 243.789063 22.921875 C 251.640625 20.980469 260.089844 22.441406 268.25 27.148438 C 276.398438 31.859375 281.890625 38.449219 284.128906 46.21875 "/>
<path style=" stroke:none;fill-rule:nonzero;fill:rgb(63.499451%,81.199646%,38.398743%);fill-opacity:1;" d="M 272.71875 275.480469 C 288.851563 291.699219 287.53125 302 284.128906 313.789063 C 281.890625 321.550781 276.398438 328.148438 268.25 332.851563 C 260.089844 337.558594 251.640625 339.019531 243.789063 337.082031 C 231.878906 334.128906 222.300781 330.121094 216.320313 308.039063 L 203.128906 258.980469 C 205.550781 258.261719 207.941406 257.429688 210.300781 256.488281 C 210.589844 256.378906 210.871094 256.269531 211.160156 256.148438 C 211.339844 256.078125 211.519531 256.011719 211.691406 255.929688 C 212.570313 255.570313 213.441406 255.191406 214.300781 254.800781 C 215.039063 254.460938 215.78125 254.121094 216.511719 253.761719 C 216.519531 253.75 216.53125 253.738281 216.539063 253.738281 C 224.019531 250.050781 230.839844 245.269531 236.828125 239.53125 L 272.71875 275.480469 "/>
<path style=" stroke:none;fill-rule:nonzero;fill:rgb(98.399353%,93.299866%,12.89978%);fill-opacity:1;" d="M 155.5 143.25 C 158.601563 138.121094 158.320313 132.269531 154.871094 130.179688 C 151.421875 128.089844 146.109375 130.558594 143 135.679688 C 139.898438 140.808594 140.179688 146.660156 143.640625 148.75 C 147.089844 150.839844 152.398438 148.371094 155.5 143.25 Z M 215.050781 148.75 C 218.5 146.660156 218.78125 140.808594 215.679688 135.679688 C 212.578125 130.558594 207.269531 128.089844 203.820313 130.179688 C 200.359375 132.269531 200.078125 138.121094 203.179688 143.25 C 206.289063 148.371094 211.601563 150.839844 215.050781 148.75 Z M 238.898438 171.609375 L 239.109375 170.269531 L 237.859375 169.730469 C 237.609375 169.621094 212.621094 159.078125 179.339844 159.078125 C 146.050781 159.078125 121.058594 169.621094 120.808594 169.730469 L 119.558594 170.269531 L 119.769531 171.609375 C 124.578125 202.519531 149.660156 235.621094 179.339844 235.621094 C 209.011719 235.621094 234.089844 202.519531 238.898438 171.609375 Z M 257.890625 168.25 C 258.460938 172.078125 258.769531 176.011719 258.769531 180 C 258.769531 184 258.460938 187.921875 257.890625 191.761719 C 257.859375 191.898438 257.839844 192.050781 257.820313 192.199219 C 257.761719 192.570313 257.699219 192.941406 257.640625 193.308594 C 257.570313 193.691406 257.5 194.078125 257.429688 194.46875 C 257.398438 194.601563 257.378906 194.738281 257.351563 194.871094 C 256.988281 196.71875 256.570313 198.558594 256.078125 200.390625 C 255.75 201.640625 255.378906 202.871094 254.988281 204.101563 C 254.96875 204.160156 254.949219 204.21875 254.929688 204.28125 C 254.78125 204.761719 254.621094 205.238281 254.449219 205.710938 C 254.351563 206.019531 254.238281 206.328125 254.128906 206.640625 C 254.050781 206.839844 253.980469 207.050781 253.898438 207.261719 C 245.929688 228.800781 228.800781 245.941406 207.25 253.910156 C 207.039063 253.980469 206.839844 254.058594 206.628906 254.128906 C 206.320313 254.238281 206.019531 254.351563 205.710938 254.460938 C 205.230469 254.621094 204.761719 254.78125 204.28125 254.941406 C 204.210938 254.960938 204.148438 254.980469 204.089844 255 C 203.488281 255.191406 202.890625 255.371094 202.28125 255.550781 C 201.648438 255.738281 201.019531 255.921875 200.378906 256.089844 C 198.550781 256.578125 196.699219 257 194.851563 257.359375 C 194.730469 257.378906 194.601563 257.410156 194.480469 257.429688 C 194.078125 257.511719 193.679688 257.578125 193.28125 257.640625 C 192.929688 257.699219 192.570313 257.761719 192.21875 257.820313 C 192.050781 257.851563 191.890625 257.871094 191.730469 257.898438 C 187.898438 258.46875 183.980469 258.769531 180 258.769531 C 178.640625 258.769531 177.289063 258.738281 175.949219 258.671875 C 173.359375 258.539063 170.800781 258.269531 168.269531 257.898438 C 168.109375 257.871094 167.941406 257.851563 167.769531 257.820313 C 167.421875 257.761719 167.070313 257.699219 166.71875 257.648438 C 166.320313 257.578125 165.910156 257.511719 165.511719 257.429688 C 165.390625 257.410156 165.269531 257.378906 165.148438 257.359375 C 163.300781 257 161.449219 256.578125 159.609375 256.089844 C 158.359375 255.75 157.128906 255.390625 155.898438 255 C 155.839844 254.980469 155.78125 254.960938 155.710938 254.929688 C 155.238281 254.78125 154.761719 254.621094 154.289063 254.460938 C 153.980469 254.351563 153.671875 254.238281 153.359375 254.128906 C 153.148438 254.058594 152.949219 253.980469 152.75 253.910156 C 135.421875 247.5 120.949219 235.171875 111.800781 219.378906 C 104.921875 207.421875 101.269531 193.800781 101.25 180 C 101.25 178.058594 101.328125 176.121094 101.46875 174.191406 C 102.359375 162.410156 105.878906 150.910156 111.800781 140.628906 C 118.53125 129.011719 128.148438 119.261719 139.671875 112.371094 C 140.070313 112.128906 140.480469 111.878906 140.890625 111.648438 C 141.109375 111.53125 141.328125 111.398438 141.539063 111.28125 C 142.050781 111 142.550781 110.730469 143.058594 110.460938 C 143.238281 110.371094 143.410156 110.269531 143.589844 110.179688 C 144.25 109.828125 144.921875 109.5 145.601563 109.171875 C 145.769531 109.089844 145.941406 109.011719 146.109375 108.929688 C 146.628906 108.679688 147.160156 108.441406 147.691406 108.199219 C 147.921875 108.101563 148.148438 108 148.378906 107.898438 C 148.910156 107.660156 149.449219 107.441406 149.988281 107.210938 C 150.160156 107.140625 150.328125 107.070313 150.5 107 C 151.199219 106.71875 151.890625 106.449219 152.601563 106.191406 C 152.78125 106.121094 152.96875 106.058594 153.148438 105.988281 C 153.691406 105.800781 154.230469 105.609375 154.78125 105.421875 C 155.011719 105.339844 155.238281 105.269531 155.480469 105.191406 C 156.050781 105 156.609375 104.828125 157.179688 104.648438 C 157.351563 104.601563 157.511719 104.550781 157.671875 104.5 C 158.390625 104.289063 159.109375 104.089844 159.839844 103.898438 C 160.03125 103.851563 160.230469 103.800781 160.429688 103.75 C 160.980469 103.601563 161.53125 103.46875 162.089844 103.339844 C 162.320313 103.28125 162.558594 103.230469 162.800781 103.179688 C 163.398438 103.039063 164 102.910156 164.609375 102.789063 C 164.75 102.761719 164.898438 102.730469 165.039063 102.699219 C 165.78125 102.558594 166.519531 102.429688 167.261719 102.308594 C 167.46875 102.269531 167.679688 102.238281 167.890625 102.210938 C 168.449219 102.121094 169.011719 102.039063 169.570313 101.960938 C 169.808594 101.929688 170.039063 101.898438 170.28125 101.871094 C 170.921875 101.789063 171.558594 101.71875 172.191406 101.648438 C 172.320313 101.640625 172.441406 101.628906 172.558594 101.609375 C 173.320313 101.539063 174.070313 101.480469 174.820313 101.429688 C 175.039063 101.421875 175.25 101.410156 175.46875 101.390625 C 176.03125 101.359375 176.601563 101.328125 177.160156 101.308594 C 177.398438 101.300781 177.640625 101.289063 177.878906 101.289063 C 178.550781 101.269531 179.21875 101.25 179.890625 101.25 C 179.929688 101.25 179.96875 101.25 180 101.25 C 180.011719 101.25 180.03125 101.25 180.039063 101.25 C 180.738281 101.25 181.441406 101.269531 182.140625 101.289063 C 182.359375 101.289063 182.578125 101.300781 182.800781 101.308594 C 183.390625 101.328125 183.980469 101.359375 184.558594 101.390625 C 184.761719 101.410156 184.960938 101.421875 185.148438 101.429688 C 185.921875 101.480469 186.679688 101.539063 187.449219 101.621094 C 187.539063 101.621094 187.628906 101.640625 187.71875 101.640625 C 188.390625 101.710938 189.070313 101.789063 189.738281 101.871094 C 189.960938 101.898438 190.171875 101.929688 190.378906 101.960938 C 190.980469 102.039063 191.570313 102.121094 192.171875 102.21875 C 192.351563 102.25 192.519531 102.269531 192.699219 102.300781 C 193.460938 102.429688 194.21875 102.558594 194.980469 102.710938 C 195.078125 102.730469 195.171875 102.75 195.269531 102.769531 C 195.929688 102.898438 196.589844 103.039063 197.238281 103.191406 C 197.441406 103.230469 197.648438 103.28125 197.851563 103.328125 C 198.449219 103.46875 199.058594 103.621094 199.660156 103.769531 C 199.808594 103.808594 199.960938 103.851563 200.121094 103.890625 C 200.871094 104.089844 201.621094 104.300781 202.359375 104.519531 C 202.460938 104.550781 202.558594 104.578125 202.671875 104.609375 C 203.308594 104.800781 203.941406 105 204.578125 105.210938 C 204.769531 105.269531 204.960938 105.339844 205.148438 105.398438 C 205.761719 105.601563 206.359375 105.820313 206.96875 106.039063 C 207.101563 106.078125 207.21875 106.128906 207.351563 106.171875 C 208.078125 106.441406 208.808594 106.730469 209.539063 107.019531 C 209.648438 107.058594 209.75 107.109375 209.859375 107.148438 C 210.46875 107.398438 211.078125 107.660156 211.691406 107.929688 C 211.871094 108.011719 212.050781 108.089844 212.21875 108.160156 C 212.828125 108.441406 213.441406 108.71875 214.039063 109 C 214.140625 109.050781 214.238281 109.101563 214.339844 109.148438 C 215.050781 109.488281 215.761719 109.839844 216.460938 110.210938 C 216.570313 110.269531 216.679688 110.328125 216.789063 110.378906 C 217.371094 110.691406 217.949219 111 218.53125 111.328125 C 218.691406 111.421875 218.859375 111.511719 219.03125 111.609375 C 219.539063 111.898438 220.050781 112.199219 220.550781 112.5 C 235.769531 121.679688 247.648438 135.859375 253.898438 152.75 C 253.980469 152.949219 254.050781 153.160156 254.128906 153.371094 C 254.238281 153.671875 254.351563 153.980469 254.449219 154.289063 C 254.621094 154.769531 254.78125 155.238281 254.929688 155.71875 C 254.949219 155.78125 254.96875 155.851563 254.988281 155.910156 C 255.378906 157.128906 255.75 158.371094 256.078125 159.621094 C 256.570313 161.449219 256.988281 163.289063 257.351563 165.128906 C 257.378906 165.261719 257.398438 165.398438 257.429688 165.539063 C 257.5 165.921875 257.570313 166.308594 257.640625 166.699219 C 257.699219 167.058594 257.761719 167.429688 257.820313 167.800781 C 257.839844 167.949219 257.859375 168.101563 257.890625 168.25 "/>
<path style=" stroke:none;fill-rule:nonzero;fill:rgb(13.699341%,12.199402%,12.5%);fill-opacity:1;" d="M 215.679688 213.03125 C 225.589844 201.75 232.660156 187.03125 235.210938 172.449219 C 229.800781 170.371094 207.660156 162.578125 179.339844 162.578125 C 150.96875 162.578125 128.859375 170.359375 123.460938 172.441406 C 126.011719 187.03125 133.078125 201.75 142.988281 213.03125 C 153.800781 225.339844 166.710938 232.121094 179.339844 232.121094 C 191.960938 232.121094 204.871094 225.339844 215.679688 213.03125 Z M 239.109375 170.269531 L 238.898438 171.609375 C 234.089844 202.519531 209.011719 235.621094 179.339844 235.621094 C 149.660156 235.621094 124.578125 202.519531 119.769531 171.609375 L 119.558594 170.269531 L 120.808594 169.730469 C 121.058594 169.621094 146.050781 159.078125 179.339844 159.078125 C 212.621094 159.078125 237.609375 169.621094 237.859375 169.730469 L 239.109375 170.269531 "/>
<path style=" stroke:none;fill-rule:nonzero;fill:rgb(92.89856%,12.5%,14.498901%);fill-opacity:1;" d="M 235.210938 172.449219 C 232.660156 187.03125 225.589844 201.75 215.679688 213.03125 C 204.871094 225.339844 191.960938 232.121094 179.339844 232.121094 C 166.710938 232.121094 153.800781 225.339844 142.988281 213.03125 C 133.078125 201.75 126.011719 187.03125 123.460938 172.441406 C 128.859375 170.359375 150.96875 162.578125 179.339844 162.578125 C 207.660156 162.578125 229.800781 170.371094 235.210938 172.449219 "/>
<path style=" stroke:none;fill-rule:nonzero;fill:rgb(13.699341%,12.199402%,12.5%);fill-opacity:1;" d="M 207.691406 139.398438 C 209.25 138.890625 209.878906 136.53125 209.089844 134.128906 C 208.300781 131.730469 206.398438 130.199219 204.828125 130.710938 C 203.269531 131.230469 202.640625 133.589844 203.429688 135.988281 C 204.21875 138.390625 206.128906 139.921875 207.691406 139.398438 Z M 214.851563 147.539063 C 216 147.160156 216.488281 145.511719 215.949219 143.851563 C 215.398438 142.191406 214.03125 141.160156 212.871094 141.53125 C 211.71875 141.910156 211.230469 143.558594 211.769531 145.21875 C 212.320313 146.878906 213.699219 147.921875 214.851563 147.539063 Z M 215.679688 135.679688 C 218.78125 140.808594 218.5 146.660156 215.050781 148.75 C 211.601563 150.839844 206.289063 148.371094 203.179688 143.25 C 200.078125 138.121094 200.359375 132.269531 203.820313 130.179688 C 207.269531 128.089844 212.578125 130.558594 215.679688 135.679688 "/>
<path style=" stroke:none;fill-rule:nonzero;fill:rgb(100%,100%,100%);fill-opacity:1;" d="M 215.949219 143.851563 C 216.488281 145.511719 216 147.160156 214.851563 147.539063 C 213.699219 147.921875 212.320313 146.878906 211.769531 145.21875 C 211.230469 143.558594 211.71875 141.910156 212.871094 141.53125 C 214.03125 141.160156 215.398438 142.191406 215.949219 143.851563 "/>
<path style=" stroke:none;fill-rule:nonzero;fill:rgb(92.89856%,34.899902%,62.69989%);fill-opacity:1;" d="M 203.289063 12.070313 C 212.128906 20.578125 218.421875 28.839844 212.558594 50.949219 L 199.449219 100.03125 C 193.488281 98.570313 187.398438 97.789063 181.269531 97.710938 C 181.25 97.710938 181.238281 97.710938 181.21875 97.710938 C 180.808594 97.699219 180.398438 97.699219 179.988281 97.699219 C 179.589844 97.699219 179.191406 97.699219 178.789063 97.710938 C 178.761719 97.710938 178.730469 97.710938 178.699219 97.710938 C 172.578125 97.800781 166.488281 98.570313 160.539063 100.03125 L 147.429688 50.960938 C 141.570313 28.839844 147.871094 20.578125 156.699219 12.070313 C 162.53125 6.46875 170.578125 3.5 180 3.5 C 189.410156 3.5 197.460938 6.46875 203.289063 12.070313 "/>
<path style=" stroke:none;fill-rule:nonzero;fill:rgb(9.799194%,68.998718%,41.19873%);fill-opacity:1;" d="M 212.558594 309.050781 C 218.421875 331.167969 212.128906 339.429688 203.289063 347.929688 C 197.460938 353.539063 189.410156 356.5 180 356.5 C 170.578125 356.5 162.53125 353.539063 156.699219 347.929688 C 147.871094 339.429688 141.570313 331.167969 147.429688 309.050781 L 160.539063 259.96875 C 166.269531 261.371094 172.109375 262.140625 178 262.28125 C 178.53125 262.289063 179.058594 262.300781 179.589844 262.300781 C 179.640625 262.300781 179.699219 262.308594 179.75 262.308594 C 179.789063 262.308594 179.820313 262.308594 179.859375 262.308594 C 179.910156 262.308594 179.949219 262.308594 180 262.308594 C 180.039063 262.308594 180.089844 262.308594 180.128906 262.308594 C 180.21875 262.308594 180.308594 262.300781 180.398438 262.300781 C 180.929688 262.300781 181.46875 262.289063 182 262.28125 C 187.890625 262.140625 193.730469 261.371094 199.449219 259.96875 L 212.558594 309.050781 "/>
<path style=" stroke:none;fill-rule:nonzero;fill:rgb(100%,100%,100%);fill-opacity:1;" d="M 209.089844 134.128906 C 209.878906 136.53125 209.25 138.890625 207.691406 139.398438 C 206.128906 139.921875 204.21875 138.390625 203.429688 135.988281 C 202.640625 133.589844 203.269531 131.230469 204.828125 130.710938 C 206.398438 130.199219 208.300781 131.730469 209.089844 134.128906 "/>
<path style=" stroke:none;fill-rule:nonzero;fill:rgb(63.09967%,33.299255%,63.09967%);fill-opacity:1;" d="M 143.671875 51.960938 L 156.859375 101.019531 C 154.28125 101.78125 151.738281 102.671875 149.230469 103.691406 C 148.988281 103.789063 148.75 103.890625 148.511719 103.988281 C 148.269531 104.089844 148.03125 104.179688 147.789063 104.28125 C 138.609375 108.171875 130.289063 113.648438 123.160156 120.46875 L 87.269531 84.53125 C 71.140625 68.300781 72.460938 58 75.859375 46.21875 C 78.101563 38.449219 83.601563 31.859375 91.75 27.148438 C 99.898438 22.441406 108.359375 20.980469 116.199219 22.921875 C 128.109375 25.871094 137.691406 29.878906 143.671875 51.960938 "/>
<path style=" stroke:none;fill-rule:nonzero;fill:rgb(6.298828%,71.398926%,67.799377%);fill-opacity:1;" d="M 156.859375 258.980469 L 143.679688 308.039063 C 137.691406 330.121094 128.109375 334.128906 116.199219 337.082031 C 108.359375 339.019531 99.898438 337.558594 91.75 332.851563 C 83.601563 328.148438 78.101563 321.550781 75.859375 313.789063 C 72.460938 302 71.140625 291.699219 87.269531 275.480469 L 123.160156 239.53125 C 130.421875 246.480469 138.910156 252.03125 148.289063 255.929688 C 148.46875 256 148.660156 256.078125 148.839844 256.160156 C 149.121094 256.269531 149.390625 256.378906 149.671875 256.480469 C 152.039063 257.429688 154.429688 258.261719 156.859375 258.980469 "/>
<path style=" stroke:none;fill-rule:nonzero;fill:rgb(13.699341%,12.199402%,12.5%);fill-opacity:1;" d="M 146.910156 145.21875 C 147.460938 143.558594 146.960938 141.910156 145.808594 141.53125 C 144.660156 141.160156 143.28125 142.191406 142.738281 143.851563 C 142.191406 145.511719 142.691406 147.160156 143.839844 147.539063 C 144.988281 147.921875 146.371094 146.878906 146.910156 145.21875 Z M 155.25 135.988281 C 156.039063 133.589844 155.410156 131.230469 153.851563 130.710938 C 152.289063 130.199219 150.378906 131.730469 149.589844 134.128906 C 148.800781 136.53125 149.429688 138.890625 150.988281 139.398438 C 152.558594 139.921875 154.460938 138.390625 155.25 135.988281 Z M 154.871094 130.179688 C 158.320313 132.269531 158.601563 138.121094 155.5 143.25 C 152.398438 148.371094 147.089844 150.839844 143.640625 148.75 C 140.179688 146.660156 139.898438 140.808594 143 135.679688 C 146.109375 130.558594 151.421875 128.089844 154.871094 130.179688 "/>
<path style=" stroke:none;fill-rule:nonzero;fill:rgb(100%,100%,100%);fill-opacity:1;" d="M 153.851563 130.710938 C 155.410156 131.230469 156.039063 133.589844 155.25 135.988281 C 154.460938 138.390625 152.558594 139.921875 150.988281 139.398438 C 149.429688 138.890625 148.800781 136.53125 149.589844 134.128906 C 150.378906 131.730469 152.289063 130.199219 153.851563 130.710938 "/>
<path style=" stroke:none;fill-rule:nonzero;fill:rgb(100%,100%,100%);fill-opacity:1;" d="M 145.808594 141.53125 C 146.960938 141.910156 147.460938 143.558594 146.910156 145.21875 C 146.371094 146.878906 144.988281 147.921875 143.839844 147.539063 C 142.691406 147.160156 142.191406 145.511719 142.738281 143.851563 C 143.28125 142.191406 144.660156 141.160156 145.808594 141.53125 "/>
<path style=" stroke:none;fill-rule:nonzero;fill:rgb(32.199097%,30.999756%,63.09967%);fill-opacity:1;" d="M 84.519531 87.28125 L 120.46875 123.171875 C 116.988281 126.828125 113.828125 130.839844 111.03125 135.148438 C 111 135.191406 110.96875 135.230469 110.949219 135.269531 C 110.640625 135.75 110.339844 136.230469 110.039063 136.710938 C 109.96875 136.828125 109.890625 136.949219 109.820313 137.070313 C 109.511719 137.570313 109.210938 138.078125 108.910156 138.601563 C 108.859375 138.691406 108.800781 138.78125 108.75 138.871094 C 106.351563 143.019531 104.359375 147.289063 102.761719 151.648438 C 102.75 151.691406 102.730469 151.730469 102.71875 151.769531 C 102.53125 152.289063 102.339844 152.808594 102.160156 153.328125 C 102.121094 153.46875 102.070313 153.601563 102.03125 153.730469 C 101.878906 154.179688 101.730469 154.628906 101.589844 155.089844 C 101.519531 155.289063 101.449219 155.5 101.390625 155.710938 C 101.269531 156.101563 101.148438 156.480469 101.039063 156.871094 L 51.960938 143.679688 C 29.871094 137.699219 25.871094 128.109375 22.917969 116.210938 C 20.980469 108.359375 22.441406 99.898438 27.148438 91.75 C 31.851563 83.601563 38.449219 78.109375 46.210938 75.871094 C 58 72.460938 68.300781 71.140625 84.519531 87.28125 "/>
<path style=" stroke:none;fill-rule:nonzero;fill:rgb(16.499329%,71.398926%,91.398621%);fill-opacity:1;" d="M 120.46875 236.828125 L 84.519531 272.730469 C 68.300781 288.859375 57.988281 287.539063 46.210938 284.140625 C 38.449219 281.898438 31.851563 276.398438 27.148438 268.25 C 22.441406 260.101563 20.980469 251.640625 22.917969 243.789063 C 25.871094 231.890625 29.871094 222.308594 51.960938 216.320313 L 101.039063 203.128906 C 101.039063 203.128906 101.039063 203.128906 101.039063 203.140625 C 101.148438 203.519531 101.269531 203.898438 101.390625 204.289063 C 101.449219 204.5 101.519531 204.71875 101.589844 204.929688 C 101.730469 205.378906 101.878906 205.820313 102.03125 206.269531 C 102.070313 206.410156 102.121094 206.539063 102.171875 206.679688 C 102.351563 207.199219 102.53125 207.71875 102.71875 208.230469 C 102.730469 208.28125 102.75 208.328125 102.769531 208.371094 C 104.371094 212.71875 106.359375 216.988281 108.75 221.140625 C 112.070313 226.890625 116.011719 232.140625 120.46875 236.828125 "/>
<path style=" stroke:none;fill-rule:nonzero;fill:rgb(9.799194%,52.49939%,77.999878%);fill-opacity:1;" d="M 100.050781 160.558594 C 99.960938 160.949219 99.859375 161.339844 99.769531 161.738281 C 99.730469 161.941406 99.679688 162.148438 99.640625 162.351563 C 99.53125 162.820313 99.429688 163.300781 99.339844 163.769531 C 99.308594 163.898438 99.289063 164.03125 99.261719 164.160156 C 99.148438 164.710938 99.050781 165.261719 98.949219 165.820313 C 98.949219 165.851563 98.941406 165.878906 98.941406 165.921875 C 98.140625 170.488281 97.730469 175.199219 97.730469 180 C 97.730469 184.808594 98.140625 189.511719 98.941406 194.089844 C 98.941406 194.121094 98.949219 194.148438 98.949219 194.179688 C 99.050781 194.738281 99.160156 195.300781 99.261719 195.851563 C 99.289063 195.980469 99.308594 196.101563 99.339844 196.230469 C 99.429688 196.710938 99.539063 197.179688 99.640625 197.660156 C 99.679688 197.859375 99.730469 198.058594 99.769531 198.261719 C 99.859375 198.660156 99.960938 199.050781 100.050781 199.449219 L 50.949219 212.570313 C 28.832031 218.429688 20.570313 212.128906 12.070313 203.289063 C 6.460938 197.46875 3.5 189.410156 3.5 180 C 3.5 170.589844 6.460938 162.53125 12.070313 156.710938 C 20.570313 147.871094 28.832031 141.578125 50.949219 147.441406 L 100.050781 160.558594 "/>
</g>
</svg>
