<?xml version="1.0" encoding="UTF-8"?><svg id="Layer_2" xmlns="http://www.w3.org/2000/svg" viewBox="0 0 1315.77 739.82"><defs><style>.cls-1{fill:#fff;stroke:#000;stroke-miterlimit:10;}</style></defs><g id="Layer_1-2"><path class="cls-1" d="M60.62,344.97c415.65-62.59,834.43-104.42,1254.25-125.29-103.36,174.71-149.01,266.39-228.11,413.44-7.69-16.56-28.86-25.42-46.06-19.27.53-2.68,1.05-5.36,1.58-8.04,67.2-119.85,154.4-241.7,221.6-361.55-418.72,40.35-767.5,77.33-1208.79,143.78,13.84-16.71,27.68-33.41,5.54-43.07Z"/><path class="cls-1" d="M97.75,360.14c53.56-81.25,100.34-166.32,174.81-228.97,51.03-42.92,108.12-83.59,174.16-92.77,66.04-9.19,130.17,7.15,150.16,70.76,14.25,45.35,10.08,111.61,22.05,157.61,9.33,35.83,36.43,66.56,70.82,80.29,32.89,13.13,69.57,10.93,104.74,15.12s73.28,18.08,88.54,50.03c16.77,35.12-.5,76.14-16.33,111.7-15.83,35.56-29.75,79.04-7.95,111.27,12.59,18.61,34.43,28.59,55.86,35.35,31.72,10.01,65.04,14.81,98.3,14.45,28.94-.32,29.45-43.52.53-44.71-6.94-.28-13.88-.31-20.82-.08-37.39,1.27-83.76,5.89-103.24-26.05-17.64-28.92,1.46-65.08,14.48-96.35,21.8-52.35,22.01-121.23-21.98-157.02-43.79-35.62-109.16-22.82-161.85-43.08-45.98-17.68-62.19-48.7-66.91-97.73-3.96-41.16-6.85-97.76-18.52-137.43-12.57-42.76-54.96-71.91-98.87-79.51-43.92-7.6-89.02,2.95-130.96,18.03C253.64,75.41,126.24,192.08,57.54,337.1c-12.02,25.38,23.18,46.75,39.58,23.96.22-.31.44-.62.63-.92Z"/><circle class="cls-1" cx="67.5" cy="384.05" r="67"/><circle class="cls-1" cx="1041.4" cy="669.32" r="70"/><rect class="cls-1" x="1111.4" y="186.26" width="28" height="117" transform="translate(-19.81 122.56) rotate(-6.18)"/><rect class="cls-1" x="1058.16" y="192.02" width="28" height="117" transform="translate(-20.74 116.87) rotate(-6.18)"/><rect class="cls-1" x="996.91" y="198.65" width="28" height="117" transform="translate(-21.81 110.31) rotate(-6.18)"/><rect class="cls-1" x="928.17" y="206.09" width="28" height="117" transform="translate(-23.01 102.96) rotate(-6.18)"/></g></svg>