<?xml version="1.0" encoding="UTF-8"?><svg id="Layer_2" xmlns="http://www.w3.org/2000/svg" viewBox="0 0 915.48 754.18"><defs><style>.cls-1{fill:#fff;}.cls-2{fill:#ff7070;stroke:#000;stroke-miterlimit:10;stroke-width:.61px;}.cls-3{fill:#ff61fa;}</style></defs><g id="Layer_1-2"><path class="cls-2" d="M175.76,39.42c-8.09,2.68-15.96,6-23.52,9.92-5.56,2.88-11.4,6.19-17.66,5.49,1.53.94,3.24,1.58,5.01,1.87-8.54,4.74-17.21,9.58-23.98,16.61-1.2,1.25-2.35,2.57-3.79,3.53-1.44.96-3.26,1.51-4.92,1.03.75.59,1.5,1.17,1.91,1.22C64.02,134.5,32.81,199.39,2,263.62c-.88,1.84-1.79,3.78-1.69,5.81.1,2.04,1.56,4.17,3.6,4.26,13.62-24.93,27.24-49.86,40.85-74.79,21.84-39.98,44.15-80.6,76.73-112.44l-.14,4c6.48-9.74,15.39-17.85,25.7-23.39l-.31,4.58c8.59-9.42,20.04-16.21,32.43-19.23-1.29,1.86-2.58,3.72-3.61,5.97,13.05-8.86,29.29-12.9,44.97-11.2l-15.44,4.54c1.38,2.16,4.3,2.84,6.83,2.43,2.53-.41,4.81-1.68,7.18-2.66,12.39-5.16,26.49-2.46,39.63.32-6.51,5.9-14.88,9.72-23.61,10.74l10.21.4-11.38,5.8c3.58,2.21,8.36.81,11.77-1.65,3.41-2.46,6.08-5.86,9.58-8.18,5.44-3.62,12.41-4.29,18.85-3.23,6.44,1.06,12.5,3.71,18.48,6.34-11.25,8.49-23.98,15.03-37.43,19.24,3.71,2.8,9.44,2.44,12.77-.79-2.25,1.73-4.49,3.45-6.74,5.18,13.48-5.65,26.46-12.5,39.16-19.36,6.97,3.03,13.94,6.06,20.67,8.2-9.86,6.33-21.79,9.38-33.48,8.56-5.14-.36-10.82-1.31-15.04,1.65,2.84.36,5.68.72,8.52,1.08-1.97,1.29-4.18,2.22-6.48,2.71,19.63,3.51,40.14,2,58.76-5.22.37-.12.75-.24,1.93-1.04,4.3,5.14,10,9.1,16.32,10.97-2.54,1.61-5.75,1.73-8.74,1.39s-5.96-1.06-8.96-.97c-4.86.15-9.39,2.45-14.18,3.32-5.3.97-10.74.18-16.12-.19-5.38-.37-11.04-.25-15.78,2.31,6.23,3.04,13.26,4.43,20.17,3.94-5.32,3.04-10.17,6.9-14.31,11.41,7.43-2.31,14.87-4.63,22.3-6.94,2.8-.87,5.65-1.75,8.59-1.81,3.73-.08,7.35,1.17,11.02,1.84,5.09.92,10.38.71,15.38-.61,2.78-.74,5.53-1.82,8.41-1.78,5.98.08,10.71,4.84,14.73,9.26-8.76.73-17.53,1.46-26.29,2.19-6.74.56-13.72,1.09-20.08-1.19-2.83-1.01-5.44-2.56-8.24-3.66-2.8-1.1-5.93-1.76-8.81-.9,2.67,3,6.19,5.23,10.04,6.37-6.61-1.67-13.83-.79-19.72,2.14,13.32,2.83,26.63,5.67,39.95,8.5,6.96,1.48,13.96,2.97,21.07,3.32,7.11.36,14.4-.47,20.94-3.04,3.78,3.6,7.55,7.2,11.12,11.6-12.29.07-24.58.14-36.88.21-7.31.04-15.08-.04-21.27-3.93-5.3-3.33-9.19-9.3-15.34-10.47,2.58,5.86,7.13,10.83,12.75,13.9-6.35-3.25-13.87-4.18-20.82-2.57,7.28,7.44,15.99,10.08,26.22,12,10.23,1.92,30.8,6.89,30.8,6.89,8,2.43,16.64,2.71,24.77.81,3.07-.72,6.37-1.73,9.27-.51,3.26,1.37,4.86,5.06,6.29,8.21.25.55.41,1.14.4,1.74-.07,2.87-3.42,3.32-5.95,3.2-12.46-.6-24.92-1.2-37.38-1.8-3.26-.16-6.63-.34-9.52-1.85-2.75-1.43-4.79-3.92-6.74-6.33l-6.71-8.31c-.95-1.18-2.6-1.63-3.95-.95-2.29,1.16-1.23,4.3.45,5.91,1.57,1.51,3.68,2.83,3.98,4.99-3.76-1.57-7.69-2.71-11.71-3.38-1.24-.21-2.53.21-3.29,1.21-1.61,2.13.52,4.38,2.43,5.72,24.05,16.95,54.42,24.98,83.6,21.21,1.24-.16,2.53-.34,3.72.05,2.52.82,3.72,3.83,4.91,5.9.63,1.1.91,2.39.64,3.62-.67,3.02-3.77,3.22-6.32,3.15-16.01-.44-32.01-.88-48.02-1.32-2.44-.07-4.94-.14-7.22-1.02-2.53-.97-4.59-2.85-6.79-4.44-4.11-2.97-8.87-5.02-13.86-5.95-1.24-.23-2.54.3-3.13,1.4-.85,1.58.37,2.91,1.49,3.92,2.8,2.51,5.76,4.85,8.86,6.98-2.54-1.7-5.09-3.4-7.63-5.1,1.44,4.56,5.09,8.17,9.24,10.56,4.15,2.39,8.81,3.7,13.42,4.99,10.91,3.04,21.88,6.03,33.14,7.27,11.25,1.24,22.89.66,33.28-3.71,1.26,3.9,2.51,7.79,3.77,11.69.4,1.25.81,2.63-.69,3.77-.77.58-1.74.84-2.71.8l-54.42-2.2c-5.56-.22-11.29-.49-16.32-2.87-3.41-1.61-6.31-4.12-9.49-6.15-3.18-2.03-6.9-3.63-10.64-3.09l5.17,6.37c-1.83-1.24-3.65-2.49-5.66-3.53.77,4.52,3.81,8.4,7.49,11.14,3.68,2.74,7.99,4.48,12.26,6.14,12.67,4.94,25.53,9.51,38.8,12.52,13.27,3,26.98,4.43,40.81,2.98,2.47,1.69,3.96,4.72,3.79,7.71-.17,2.99-1.98,5.84-4.62,7.25-3.86,2.06-8.57.99-12.84,0-14.05-3.27-28.42-5.17-42.84-5.65-4.5-.15-9.18-.2-13.23-2.15-8.1-3.9-11.59-14.26-20.09-17.59-.73-.28-1.59-.11-2.05.51-.64.85-.08,1.67.43,2.34,1.98,2.58,3.96,5.16,5.93,7.74l-7.27-7.08c-1.48,2.85.51,6.23,2.6,8.66,10.69,12.42,25.85,20.03,41.05,26.13,15.77,6.33,32.53,11.44,49.49,10.29,2.17-.15,4.43-.38,6.43.45,2.01.83,3.58,3.16,2.08,4.75,2.33,2.13,1.23,6.32-1.34,8.14-2.57,1.83-5.95,1.94-9.1,1.91-19.31-.2-38.44-3.45-57.48-6.7-2.93-.5-5.93-1.02-8.53-2.46-6.55-3.63-9.04-12.12-15.72-15.84-1.23-.69-2.82-.54-3.81.48-1.66,1.7-.2,4.09,1.19,5.74,2.71,3.2,5.42,6.41,8.13,9.61-3.45-3.77-6.91-7.54-10.36-11.31.75,2.72,1.88,5.34,3.35,7.75,4,6.58,10.31,11.41,16.78,15.56,23.59,15.14,52.07,23.45,80.4,19.85,1.88,2.77,3.8,5.62,4.02,9.12.07,1.11-.08,2.25-.5,3.28-1.92,4.71-7.48,4.99-12.12,4.83-9.2-.31-18.4-.62-27.61-.93-7.96-.27-15.91-.53-23.87-.8-5.17-.17-10.37-.35-15.48-1.18-10.53-1.72-20.53-6.24-29.13-12.56.47,2.85,2.32,5.43,4.86,6.79-1.29-1.3-2.99-2.19-4.79-2.49,2.71,7.23,8.53,12.96,15.15,16.92,6.28,3.77,13.3,6.11,20.32,8.23,7.88,2.38,15.82,4.58,23.79,6.63,12.49,3.21,25.52,6.13,38.22,3.87,4.31-.77,8.88-2.1,12.51-.32,3.58,3.55,2.09,10.08-1.79,13.3-3.88,3.22-9.22,3.93-14.25,4.17-15.3.71-30.66-1.75-45.93-.5-5.92.48-11.89,1.52-17.76.56-9.89-1.62-17.93-8.6-25.39-15.3-.24,4,1.97,8.05,5.47,10.02-2.77-3.08-6.48-5.29-10.51-6.25,4.94,9.81,13.86,17.2,23.72,22.04,9.86,4.84,20.69,7.35,31.48,9.38,17.53,3.3,35.49,5.45,53.2,3.31,2.46-.3,5.23-.6,6.84,1.85.56.85.82,1.87.84,2.89.1,4.88-3.7,8.89-8.07,10.76-4.02,1.72-8.49,1.97-12.85,2.2-15.75.82-31.51,1.64-47.26,2.46-6.54.34-13.17.67-19.55-.82-9.64-2.26-17.8-8.46-25.64-14.5.62,4.63,3.09,8.98,6.73,11.91-2.46-1.97-5.59-3.09-8.74-3.15,7.97,10.64,20.04,17.62,32.68,21.72,12.64,4.1,25.96,5.58,39.24,6.06,14.06,3.65,29.04,3.7,43.12.14,2.69,3.32,2.01,8.51-.67,11.85-2.68,3.33-6.88,5.09-11.06,6-4.18.91-8.49,1.11-12.67,2.01-8.31,1.8-15.94,6.37-24.39,7.29-4.98.54-10.07-.22-14.98.79-6.22,1.28-11.85,5.35-18.2,5.23-10.18-.19-17.67-10.93-27.83-11.66-1.24-.09-2.59,0-3.31,1.38-.44.84-.41,1.84-.03,2.71.78,1.77,2.53,2.69,4.19,3.53-1.42-.85-2.85-1.69-4.27-2.54,1.26,3.98,4.21,7.25,7.67,9.59,3.46,2.34,7.41,3.82,11.37,5.11,30.13,9.85,63.36,9.93,92.2-.44,4.94.04,7.43,6.78,5.32,11.25s-6.84,6.97-11.27,9.16c-16.25,8.05-32.76,16.14-50.55,19.65-17.79,3.51-37.31,1.96-52.38-8.13,1.89,4.69,5.53,8.66,10.05,10.95-1.61-1.57-3.98-2.32-6.21-1.96,3.23,7.02,10.69,11.08,18.03,13.51,15.83,5.25,33.05,5.14,49.48,2.24,16.43-2.89,32.25-8.46,47.98-14.01.61,6.35-2.71,12.58-7.33,16.99-4.62,4.41-10.44,7.31-16.16,10.14-14.78,7.32-30,14.77-46.43,16.13-7.69.64-15.43-.09-23.14-.5-2.52-.13-5.13-.22-7.43.96-.83.43-1.58,1.03-2.13,1.79-2.43,3.31.08,6.84,3.14,8.01,2.32.89,4.9.73,7.38.56-5.11.15-10.22.31-15.33.46,7.48,7.67,18.74,10.68,29.45,10.4s21.1-3.49,31.33-6.66c16.38-5.08,32.76-10.17,49.14-15.25-.2,10.78-9.34,19.31-18.88,24.33-9.54,5.02-20.28,8.03-28.65,14.82-4.35,3.53-7.89,7.95-12.04,11.72-4.15,3.77-9.21,6.97-14.81,7.2-5.47.23-12.21-1.94-15.7,2.99,6.8.42,13.6.83,20.39,1.25-5.31-.22-10.67,1.63-14.72,5.06,8.54,3.52,18.23.35,26.9-2.83,20.87-7.65,42.04-15.45,60.06-28.46.12,6.39-1.4,12.81-2.19,17.53-8.1,8.39-16.27,16.86-22.46,26.74-8.82,14.08-14.09,31.47-27.9,40.7,4.92,1.17,10.39-.3,14.06-3.78-3.91,2.96-7.82,5.91-11.72,8.87,3.53,1.24,7.55.13,10.65-1.98,3.09-2.11,5.44-5.12,7.74-8.08,10.87-14,21.74-28,34.05-40.86.07-.05.13-.11.6.06-2.08,7.59-2.4,14.02.02,22.34.88,3.02,2.2,5.53,1.66,8.63-.34,1.91-.76,6.83-1.44,8.64-2.89,7.65-9.7,7.56-16.94,12.09-6.6,4.13-13.56,14.32-19.37,20.04-3.76,3.7-8.7,5.83-13.86,6.89-214.47,44.31-421.5-108.47-345.24-63.79,186.42,109.24,338.9,74.99,363.22,66.43,10.22.98,20.7,1.93,30.62-.72,4.65-1.25,9.09-3.28,13.08-5.98.03,1.63,1.17,3.03,2.41,4.09,1.54,1.32,3.36,2.38,4.21,4.32.38.87.48,1.87.11,2.75-.77,1.83-2.77,1.95-4.47,2.34-3.17.73-5.86,2.75-8.72,4.31-8.84,4.84-19.32,5.31-29.32,6.33-.48.05-.96.18-1.38.43-1.6.98-.9,2.57.19,3.17.74.41,1.62.46,2.46.49,8.71.29,17.37-1.31,25.94-2.91,3.53.73,7.24.61,10.72-.34,3.8-1.04,7.3-3.05,11.13-3.99,4-.98,8.17-.76,12.28-1.01,4.11-.26,8.4-1.11,11.28-4.14,8.89-1.68,17.5-4.78,25.42-9.15.62-.34.97-1.06.77-1.74-.35-1.22-1.83-.96-2.86-.58-12.34,4.51-25.86,5.76-38.82,3.58-.8-.13-1.72-.38-2.03-1.12-.28-.66.07-1.43.59-1.93.52-.5,1.18-.81,1.74-1.25,1.86-1.44,2.43-4.3,1.26-6.34,4.13,3.27,9.45,4.76,14.7,5.12,5.26.36,10.52-.34,15.75-1.04,3.36-.45,6.74-.91,10.01-1.53.26-1.42,1.73-2.33,3.15-2.53,1.43-.2,2.87.14,4.3.29,3.11.32,6.32-.3,9.1-1.74,0,0,178.11,8.48,333.4-131.91,57.91-52.36-125.9,138.58-334.96,124.48-4.91-1.06-9.13-4.16-12.94-7.43-3.82-3.27-7.47-6.84-11.93-9.16-3.82-1.99-8.07-2.98-12.1-4.52-4.03-1.53-8.02-3.78-10.26-7.46-2.15-3.53-2.38-7.87-2.56-12-.34-8.03-.69-16.06-1.1-24.33,15.53,10.95,29.41,24.24,41.03,39.29,1.62,2.1,3.24,4.28,5.45,5.75,2.21,1.47,5.18,2.12,7.54.91-2.22-1.73-4.45-3.47-6.67-5.2,2.86,2.31,7.11,2.73,10.37,1.04-4.96-1.5-8.92-5.34-11.81-9.65-2.88-4.31-4.87-9.15-7.22-13.76-6.18-12.11-15.06-22.82-25.8-31.15-2.93-2.27-6.03-4.4-8.28-7.35-3.61-4.73-4.55-10.91-5.37-16.8,20.52,11.61,41.04,23.22,61.56,34.82,5.73,3.24,12.04,6.6,18.31,5.92,2.25-.34,4.56-.28,6.86-.09-.93-2.14-2.74-3.81-4.76-4.99-2.02-1.18-4.26-1.92-6.48-2.65,2.27.61,4.55,1.21,6.89,1.42,2.34.21,4.76,0,7-1.83-5.12-1.12-10.08-2.99-14.65-5.55-4.65-2.59-8.87-5.87-13.84-8.37-9.07-14.17-27.9-19.43-37.8-32.93-.12-.12-.23-.23-.1-.87-5.73-1.73-11.62-3.55-16.22-7.37-4.6-3.82-7.62-10.2-5.84-15.58,10.87,2.65,21.98,4.27,33.7,4.73,20.5,1.37,41.1,1.32,61.32-1.71l12.68-3.97c1.53-.48,3.01-1.18,4.25-2.2.52-.42.93-.95.97-1.6.04-.84-.6-1.59-1.37-1.94-.77-.34-1.64-.35-2.48-.34-7,.13-13.87,1.77-20.68,3.4,1.99-2.91,5.27-4.58,8.17-6.59,2.9-2,5.71-4.83,5.95-8.35,0-.31,0-.62.19-.54.46-.39.24-1.21-.26-1.55s-1.14-.35-1.75-.34c-4.06.04-8.53.24-11.53,2.98-1.46,1.33-2.4,3.14-3.8,4.54-3.09,3.09-7.8,3.72-12.21,4.29-.98.17-2.04-.14-2.44-1.67-17.06-5.21-34.36-9.64-51.82-13.27-4.82-1-9.86-2.04-13.69-5.13-3.83-3.1-5.9-8.97-3.82-13.38,21.67,5.86,44.85,6.05,66.64,1.12,14.37-6.2,31.52-2.42,45.85-9.01,1.23-.57,2.05-1.84,1.89-3.19-.26-2.31-2.8-2.61-4.8-2.48-4.19.27-8.35.97-12.25,2.2,4.54-3.76,8.64-8.06,12.17-12.79.61-.82.98-1.82.96-2.84-.07-3.04-3.32-3.46-5.25-2.23-1.49.95-2.38,2.58-3.67,4.1-5.63,4.19-12.65,6.16-19.64,6.74-6.99.58-14.02-.13-20.99-.85-14.44-1.48-28.88-2.96-43.32-4.45-5.12-.53-10.54-1.17-14.62-4.32-4.08-3.15-5.93-9.75-2.72-13.92l-.12-.12s-.08-.08-.15,0c26.14,6.82,54.57,4.51,79.2-5.68,11.02-7.77,27.85,2.47,39.32-4.62l-9.05-2.92c3.24.81,6.86-.05,9.39-2.25-2.12-3.88-7.02-5.11-11.4-5.75-32.87-4.85-66.96,1.14-99.28-6.59-4.34-1.04-9.52-3.36-9.23-8.08.13-2.14,1.48-3.98,3.33-5.06,3.76-2.18,7.96-1.5,12.03-1.16,19.87,1.71,39.43-4.74,57.7-11.19,8.6-4.6,17.31-9.28,24.43-15.95,7.12-6.67,12.58-15.67,12.92-25.42-4.8,2.8-8.51,7.42-10.21,12.72l3.66-13.37c-7.15,2.66-10.44,10.84-16.33,15.68-4.9,4.04-11.36,5.55-17.62,6.68-18.38,3.31-37.17,4.27-55.8,3-4.12-.28-8.43-.73-11.53-3.84-1.56-1.56-2.4-3.76-2-5.93.9-4.81,6.57-5.98,11.18-6.53,22.7-2.71,44.89-9.59,65.14-20.2,6.23-3.27,12.35-6.93,17.37-11.87,5.32-5.24,9.36-12.05,9.97-19.52.08-1-.49-2-1.45-2.27-1.05-.3-1.82.54-2.44,1.29-2.5,3.08-5.01,6.16-7.76,9.12,2.41-4.13,4.58-8.4,6.14-13.62-3.53-.13-6.75,2.11-9.05,4.79-2.3,2.68-3.96,5.86-6.21,8.58-4.22,5.1-10.34,8.34-16.69,10.19-6.35,1.85-13,2.43-19.59,2.99l-38.96,3.33c-1.35.12-2.72.05-4.03-.29-7.01-1.84-6.71-8.86-6.37-15.45,27.47-1.27,53.1-13.82,76.73-27.89,5.26-3.13,10.55-6.42,14.61-11,4.06-4.58,6.78-10.7,5.96-16.77l-11.69,11.28c3.26-4.76,5.72-10.07,7.25-15.63-5.43.44-7.93,6.72-11.26,11.04-5.78,7.51-15.84,9.96-25.1,11.93-15.12,3.22-30.25,6.44-45.37,9.66-4.79,1.02-10.37,1.85-14.07-1.34-3.58-3.09-3.71-8.51-3.81-13.76,26.7-6.18,51.63-19.8,71.25-38.44,8.05-7.65,12.71-18.75,12.49-30.13-3.55,3.61-6.13,8.16-7.53,13.03,1.5-5.57,3-11.13,4.5-16.7-4.45,6.4-8.93,12.84-14.49,18.31-8.32,8.17-18.79,13.87-29.72,17.95-10.92,4.07-22.35,6.6-33.74,9.11-3.24.71-6.83,1.4-9.53-1.21-1.79-1.73-2.45-4.31-2-6.75.87-4.69,4.88-7.72,9.09-9.44,3.58-1.45,7.42-2.14,11.06-3.42,5.7-2.01,10.77-5.42,15.78-8.79,10.46-7.05,21.03-14.19,29.54-23.49,8.51-9.31,14.91-21.13,15.02-33.91-2.3-.23-4.09,1.9-5.34,3.84-2.46,3.84-4.6,7.9-6.5,12.05,1.06-4.38,2.12-8.76,3.18-13.14.32-1.32.57-2.91-1.61-4.09-3.2,10-9.35,19.03-17.48,25.68-7.96,6.5-17.55,10.62-27.02,14.62-7.53,3.18-15.07,6.33-22.62,9.46-2.04.84-4.25,1.7-6.39,1.19-3.32-.79-5.02-4.39-6.25-7.57-.59-1.51-1.18-3.07-1.08-4.69s1.1-3.29,2.69-3.64c3.97-1.06,7.8-2.66,11.16-5.29,14.53-6.98,27.26-17.66,36.66-30.75,6.57-9.15,11.47-19.36,16.35-29.51,1.2-2.51,2.42-5.07,2.8-7.83-3.2,1.37-6.04,3.57-7.6,6.58l2.46-8.55c-4.98.88-9.36,4.6-11.02,9.38-.91,2.62-1.05,5.48-2.2,8-1.45,3.19-4.32,5.46-7.09,7.61-14.49,11.23-29.5,22.71-47.21,27.43-1.45.39-3.05.72-4.42.08-1.6-.74-2.36-2.55-2.99-4.19-1.08-2.87-2.15-6.18-.68-8.87,1.19-2.18,3.67-3.24,5.92-4.28,7.05-3.29,13.44-7.97,18.9-14.39,5.35-8.15,10.5-16.42,15.47-24.81,3.44-5.81,6.81-11.74,8.75-18.21,1.94-6.47,2.35-13.6.4-19.72-4.89,2.75-7.75,8.01-10.07,13.12-2.32,5.11-4.49,10.53-8.69,14.27-4.41,3.92-10.96,5.94-12.68,11.79-6.54,7.27-15.04,12.45-23.28,17.67-.93.59-1.97,1.02-3.07,1.17-3.23.42-5.33-1.52-6.18-5.7-2.51-.17-3.87-3.34-3.23-5.77s2.56-4.28,4.27-6.14c9.75-10.59,14.44-24.75,18.87-38.44,2.86-8.85,5.72-17.71,8.58-26.56,1.04-3.21,2.09-6.56,1.61-9.9-3.14,1.4-5.66,4.11-6.95,7.28,1.27-1.85,1.1-4.56-.41-6.23-3.21.93-5.84,3.62-6.68,6.85-.68,2.58-.27,5.32-.73,7.94-.68,3.92-3.18,7.23-5.61,10.38-8.81,11.4-17.61,22.8-26.42,34.2-.3.39-.67.72-1.12.9-1.69.71-2.69-.7-3.41-1.93-1.72-2.97-3.51-6.36-2.59-9.66.33-1.2,1.01-2.28,1.67-3.33,1.86-2.95,3.71-5.89,5.02-9.19,4.46-7.4,6.78-15.87,9.06-24.21,2.81-10.33,5.65-20.9,4.89-31.58-.16-2.27-.5-4.59-1.61-6.57-1.39-2.5-3.84-4.21-6.2-5.83-1.23,5.01-1.19,10.32.11,15.32-.83-5.02-1.67-10.04-2.5-15.06-2.99,2.24-4.13,6.24-4.21,9.98-.09,3.74.66,7.46.56,11.19-.2,7.16-3.49,13.82-6.71,20.22-3.8,7.55-7.66,15.18-13.21,21.58-.41.48-.92.88-1.49,1.14-2.2.96-3.48-.62-4.5-2.05-2.63-3.66-5.26-7.31-7.89-10.98.13-.11.26-.21.3-1.06,4.24-4.36,6.45-10.37,7.26-16.4.81-6.03.34-12.14-.14-18.2-.53-6.78-1.08-13.62-2.88-20.18-1.85-6.75-5.15-13.28-10.46-17.87-.32-.28-.74-.46-1.17-.43-1.25.09-1.38,1.58-1.24,2.68.46,3.65,1.26,7.25,2.39,10.75-.94-4.04-1.88-8.07-2.82-12.11-2.95,4.14-2.88,9.72-1.85,14.69,1.03,4.98,2.89,9.82,3.13,14.9.16,3.41-.42,6.8-1,10.17l-2.9,16.94c-.19,1.08-.78,2.08-1.71,2.66-1.79,1.11-3.21-.04-4.41-1.1-3.04-2.7-6.08-5.39-9.12-8.09-1.47-1.3-3.01-2.71-3.42-5.18,2.35-2.29,3.47-5.61,3.7-8.88.23-3.27-.33-6.54-.93-9.76-1.87-10.08-4.03-20.1-6.5-30.04-.52-2.09-1.09-4.25-2.46-5.92-1.37-1.66-3.78-2.67-5.75-1.58.25,3.3,1.19,6.54,2.75,9.46-2.16-2.68-3.91-5.68-5.18-8.88-2.12,2.06-2.26,5.48-1.47,8.33.79,2.85,2.32,5.46,3.12,8.31,2.08,7.46-1.14,15.54.47,23.12.39,1.86,1.08,3.69,1.06,5.59s-.98,3.98-2.8,4.53c-5.5-3.61-10.99-7.22-16.49-10.84-.78-.51-1.57-1.04-2.15-1.77-1.15-1.46-1.25-3.47-1.34-5.33-.81-16.06-5.37-31.91-13.21-45.95-2.39,1.4-3.54,4.6-2.6,7.2.19-2.17-.17-4.38-1.02-6.38-2.5,1.86-2.29,5.74-.97,8.56s3.47,5.28,4.21,8.31c.68,2.79.09,5.7-.25,8.55-.8,6.68,2.68,19.26,1.48,20.72,0,0-6.97-4.45-10.63-5.89-5.24-2.06-10.48-4.11-15.72-6.17,1.59-1.71,1.86-4.5.69-6.52-.08-.1-2.06-9.23-2.93-13.7-.59-3-1.17-6-2.17-8.92-.02-.23-.05-.46.25-.81-1.91-5.01-5.14-9.51-9.19-13.09-.28,3.84.9,7.78,3.19,10.91-1-4.27-4.88-7.7-9.24-8.17.4,5.48,4.44,9.94,6.46,15.05,2.95,7.44,1.49,15.88,3.12,23.71-4.9-1.06-9.26-3.73-13.88-5.68-4.61-1.95-9.96-3.16-14.87-1.92l-.12-.15-.06-.07s.05-.04.5-.15c-1.27-6.71-2.61-13.61-6.39-19.3-1.89-2.84-4.32-5.27-6.74-7.68-.78-.78-1.88-1.63-2.88-1.15-.73.34-1,1.28-.84,2.06s.66,1.45,1.14,2.1c1.48,1.97,2.96,3.94,4.44,5.9,1.28,1.7,2.62,3.57,2.62,5.7,0,2.27-1.51,4.73-.34,6.67.37,1.3.19,2.74-.86,4.4-6.43-3.77-14.36-3.48-21.8-3.1-7.44.38-15.39.63-21.78-3.2-2.45-1.47-4.58-3.5-7.22-4.6-2.64-1.11-6.14-.99-8.18,1.36,4.19,2.32,8.52,4.37,12.95,6.2.07-.02.14-.03.15.06.85.49,1.7.97,2.55,1.46-.81-.3-1.61-.6-2.42-.9.28.36.56.73.84,1.09-5.05-1.31-10.41-.15-15.4,1.4-4.99,1.55-9.94,3.51-15.15,3.81-6.94.4-14.36-2.09-20.6.98,2.47,1.43,5.36,2.1,8.21,1.94l-.1.33"/><path class="cls-1" d="M500.57,721.64c-9.6-4.88-10.77-17.5-10.72-27.95l.65-132.24c.02-4.07-.35-11.18-.79-19.41-.53-10.04-1.13-21.42-1.3-32.03l-.08-4.99c-.94-58.83-1.75-109.63-11.05-168.98-12.46-79.53-31.86-138.84-59.3-181.3-35.92-55.59-76.4-87.95-131.27-104.92l.52-1.93c71.09,16.34,125.85,66.4,162.77,148.76,34.13,76.16,41.42,162.32,44.05,236.57,2.21,100.41,7.32,184.24,16.08,263.81,2.16,4.34,2.52,9.19,1.01,13.67-1.59,4.74-5.12,8.73-9.69,10.95l-.45.22-.44-.22Z"/><path class="cls-3" d="M287.01,48.87c77.9,17.91,129.11,74.65,162.08,148.2,32.97,73.55,41.11,155.65,43.96,236.2,1.97,89.28,6.51,176.95,16.11,264.07,4.77,9.39.06,19.45-8.14,23.43-9.07-4.61-10.23-16.88-10.18-27.06.22-44.08.44-88.16.65-132.24.04-8.94-1.77-31.89-2.09-51.46-.99-61.81-1.57-113.04-11.14-174.11s-25.9-129.77-59.45-181.69c-33.55-51.92-72.76-87.07-131.81-105.34M287.46,46.92l-1.04,3.86c28.58,8.84,53.05,21.83,74.79,39.69,20.14,16.54,38.44,37.75,55.93,64.83,15.2,23.53,28.15,52.77,38.48,86.91,8.29,27.38,15.05,58.13,20.67,94.01,9.29,59.29,10.1,110.07,11.04,168.87l.08,4.96c.17,10.63.77,22.01,1.3,32.06.43,8.22.81,15.31.79,19.36l-.65,132.24c-.05,10.74,1.18,23.72,11.27,28.85l.89.45.89-.43c4.8-2.33,8.52-6.54,10.2-11.53,1.57-4.68,1.22-9.73-.99-14.27-8.74-79.5-13.85-163.25-16.06-263.54-1.73-49.03-5.04-86.34-10.71-121-7.18-43.89-18.12-81.82-33.42-115.97-37.05-82.67-92.05-132.91-163.46-149.33h0Z"/></g></svg>